<svg version="1.1" viewBox="0.0 0.0 960.0 720.0" fill="none" stroke="none" stroke-linecap="square" stroke-miterlimit="10" xmlns:xlink="http://www.w3.org/1999/xlink" xmlns="http://www.w3.org/2000/svg"><clipPath id="p.0"><path d="m0 0l960.0 0l0 720.0l-960.0 0l0 -720.0z" clip-rule="nonzero"/></clipPath><g clip-path="url(#p.0)"><path fill="#000000" fill-opacity="0.0" d="m0 0l960.0 0l0 720.0l-960.0 0z" fill-rule="evenodd"/><path fill="#d9d9d9" d="m165.67455 640.0572l0 0c0 -21.552185 37.629227 -39.02362 84.04724 -39.02362l0 0c46.418015 0 84.04726 17.471436 84.04726 39.02362l0 0c0 21.552124 -37.629242 39.02362 -84.04726 39.02362l0 0c-46.418015 0 -84.04724 -17.471497 -84.04724 -39.02362z" fill-rule="evenodd"/><path fill="#d9d9d9" d="m218.04562 574.36896l0 0c0 -20.317078 35.478775 -36.787354 79.24408 -36.787354l0 0c43.76532 0 79.24411 16.470276 79.24411 36.787354l0 0c0 20.317139 -35.47879 36.787415 -79.24411 36.787415l0 0c-43.765305 0 -79.24408 -16.470276 -79.24408 -36.787415z" fill-rule="evenodd"/><path fill="#d9d9d9" d="m227.54192 601.6247l0 0c0 -45.8266 80.03175 -82.97638 178.7559 -82.97638l0 0c98.72415 0 178.75589 37.14978 178.75589 82.97638l0 0c0 45.826538 -80.03174 82.97638 -178.75589 82.97638l0 0c-98.72415 0 -178.7559 -37.14984 -178.7559 -82.97638z" fill-rule="evenodd"/><path fill="#d9d2e9" d="m305.8864 636.1457l0 0c-1.0523682 -2.9310303 3.1991577 -5.7089844 9.496063 -6.204712l0 0c6.2969055 -0.49578857 12.2547 1.4783936 13.307098 4.409424l0 0c1.0523682 2.9310303 -3.1991577 5.7089844 -9.496063 6.204712l0 0c-6.296936 0.49578857 -12.2547 -1.4783936 -13.307098 -4.409424z" fill-rule="evenodd"/><path stroke="#000000" stroke-width="1.0" stroke-linejoin="round" stroke-linecap="butt" d="m305.8864 636.1457l0 0c-1.0523682 -2.9310303 3.1991577 -5.7089844 9.496063 -6.204712l0 0c6.2969055 -0.49578857 12.2547 1.4783936 13.307098 4.409424l0 0c1.0523682 2.9310303 -3.1991577 5.7089844 -9.496063 6.204712l0 0c-6.296936 0.49578857 -12.2547 -1.4783936 -13.307098 -4.409424z" fill-rule="evenodd"/><path fill="#666666" d="m311.3133 633.47974l0 0c2.1221619 -1.5307617 6.50766 -1.9749146 9.795288 -0.99212646l0 0c3.2876282 0.9827881 4.2323914 3.0204468 2.1102295 4.5512085l0 0c-2.1221619 1.5307007 -6.50766 1.9749146 -9.795258 0.99212646l0 0c-3.2876282 -0.9828491 -4.232422 -3.0204468 -2.11026 -4.5512085z" fill-rule="evenodd"/><path stroke="#000000" stroke-width="1.0" stroke-linejoin="round" stroke-linecap="butt" d="m311.3133 633.47974l0 0c2.1221619 -1.5307617 6.50766 -1.9749146 9.795288 -0.99212646l0 0c3.2876282 0.9827881 4.2323914 3.0204468 2.1102295 4.5512085l0 0c-2.1221619 1.5307007 -6.50766 1.9749146 -9.795258 0.99212646l0 0c-3.2876282 -0.9828491 -4.232422 -3.0204468 -2.11026 -4.5512085z" fill-rule="evenodd"/><g filter="url(#shadowFilter-p.1)"><use xlink:href="#p.1" transform="matrix(1.0 0.0 0.0 1.0 0.0 2.0)"/></g><defs><filter id="shadowFilter-p.1" filterUnits="userSpaceOnUse"><feGaussianBlur in="SourceAlpha" stdDeviation="2.0" result="blur"/><feComponentTransfer in="blur" color-interpolation-filters="sRGB"><feFuncR type="linear" slope="0" intercept="0.0"/><feFuncG type="linear" slope="0" intercept="0.0"/><feFuncB type="linear" slope="0" intercept="0.0"/><feFuncA type="linear" slope="0.5" intercept="0"/></feComponentTransfer></filter></defs><g id="p.1"><path fill="#000000" fill-opacity="0.0" d="m317.3013 635.936l0.78741455 -317.7323" fill-rule="evenodd"/><path stroke="#000000" stroke-width="2.0" stroke-linejoin="round" stroke-linecap="butt" d="m317.3013 635.936l0.78741455 -317.7323" fill-rule="evenodd"/></g><path fill="#d9d2e9" d="m324.1224 554.32263l0 0c-2.4004822 -2.748413 0.44796753 -5.878845 6.3621826 -6.9921265l0 0c5.9142456 -1.1132812 12.654663 0.21221924 15.055145 2.9606323l0 0c2.4004822 2.748352 -0.44799805 5.878845 -6.362213 6.9921265l0 0c-5.9142456 1.1132812 -12.654633 -0.21228027 -15.055115 -2.9606323z" fill-rule="evenodd"/><path stroke="#000000" stroke-width="1.0" stroke-linejoin="round" stroke-linecap="butt" d="m324.1224 554.32263l0 0c-2.4004822 -2.748413 0.44796753 -5.878845 6.3621826 -6.9921265l0 0c5.9142456 -1.1132812 12.654663 0.21221924 15.055145 2.9606323l0 0c2.4004822 2.748352 -0.44799805 5.878845 -6.362213 6.9921265l0 0c-5.9142456 1.1132812 -12.654633 -0.21228027 -15.055115 -2.9606323z" fill-rule="evenodd"/><path fill="#d9d2e9" d="m349.95755 560.9683l0 0c0 -2.9658203 5.175171 -5.370117 11.5590515 -5.370117l0 0c6.383911 0 11.5590515 2.4042969 11.5590515 5.370117l0 0c0 2.9658203 -5.1751404 5.370056 -11.5590515 5.370056l0 0c-6.3838806 0 -11.5590515 -2.4042358 -11.5590515 -5.370056z" fill-rule="evenodd"/><path stroke="#000000" stroke-width="1.0" stroke-linejoin="round" stroke-linecap="butt" d="m349.95755 560.9683l0 0c0 -2.9658203 5.175171 -5.370117 11.5590515 -5.370117l0 0c6.383911 0 11.5590515 2.4042969 11.5590515 5.370117l0 0c0 2.9658203 -5.1751404 5.370056 -11.5590515 5.370056l0 0c-6.3838806 0 -11.5590515 -2.4042358 -11.5590515 -5.370056z" fill-rule="evenodd"/><path fill="#666666" d="m354.42203 560.9714l0 0c0 -1.817749 3.1727905 -3.2913208 7.0866394 -3.2913208l0 0c3.9138184 0 7.086609 1.4735718 7.086609 3.2913208l0 0c0 1.81781 -3.1727905 3.2913818 -7.086609 3.2913818l0 0c-3.9138489 0 -7.0866394 -1.4735718 -7.0866394 -3.2913818z" fill-rule="evenodd"/><path stroke="#000000" stroke-width="1.0" stroke-linejoin="round" stroke-linecap="butt" d="m354.42203 560.9714l0 0c0 -1.817749 3.1727905 -3.2913208 7.0866394 -3.2913208l0 0c3.9138184 0 7.086609 1.4735718 7.086609 3.2913208l0 0c0 1.81781 -3.1727905 3.2913818 -7.086609 3.2913818l0 0c-3.9138489 0 -7.0866394 -1.4735718 -7.0866394 -3.2913818z" fill-rule="evenodd"/><path fill="#666666" d="m327.73428 552.3064l0 0c0 -1.817749 3.1727905 -3.2913818 7.0866394 -3.2913818l0 0c3.9138184 0 7.086609 1.4736328 7.086609 3.2913818l0 0c0 1.817749 -3.1727905 3.2913208 -7.086609 3.2913208l0 0c-3.9138489 0 -7.0866394 -1.4735718 -7.0866394 -3.2913208z" fill-rule="evenodd"/><path stroke="#000000" stroke-width="1.0" stroke-linejoin="round" stroke-linecap="butt" d="m327.73428 552.3064l0 0c0 -1.817749 3.1727905 -3.2913818 7.0866394 -3.2913818l0 0c3.9138184 0 7.086609 1.4736328 7.086609 3.2913818l0 0c0 1.817749 -3.1727905 3.2913208 -7.086609 3.2913208l0 0c-3.9138489 0 -7.0866394 -1.4735718 -7.0866394 -3.2913208z" fill-rule="evenodd"/><path fill="#d9d2e9" d="m335.75363 569.82513l0 0c-2.4004822 -2.748352 0.44796753 -5.878845 6.362213 -6.9921265l0 0c5.914215 -1.1132202 12.654633 0.21228027 15.055115 2.9606323l0 0c2.4004822 2.748413 -0.44796753 5.8789062 -6.362213 6.9921265l0 0c-5.914215 1.1132812 -12.654633 -0.21221924 -15.055115 -2.9606323z" fill-rule="evenodd"/><path stroke="#000000" stroke-width="1.0" stroke-linejoin="round" stroke-linecap="butt" d="m335.75363 569.82513l0 0c-2.4004822 -2.748352 0.44796753 -5.878845 6.362213 -6.9921265l0 0c5.914215 -1.1132202 12.654633 0.21228027 15.055115 2.9606323l0 0c2.4004822 2.748413 -0.44796753 5.8789062 -6.362213 6.9921265l0 0c-5.914215 1.1132812 -12.654633 -0.21221924 -15.055115 -2.9606323z" fill-rule="evenodd"/><path fill="#666666" d="m339.36816 567.8115l0 0c0 -1.817749 3.17276 -3.2913208 7.086609 -3.2913208l0 0c3.9138184 0 7.086609 1.4735718 7.086609 3.2913208l0 0c0 1.817749 -3.1727905 3.2913208 -7.086609 3.2913208l0 0c-3.9138489 0 -7.086609 -1.4735718 -7.086609 -3.2913208z" fill-rule="evenodd"/><path stroke="#000000" stroke-width="1.0" stroke-linejoin="round" stroke-linecap="butt" d="m339.36816 567.8115l0 0c0 -1.817749 3.17276 -3.2913208 7.086609 -3.2913208l0 0c3.9138184 0 7.086609 1.4735718 7.086609 3.2913208l0 0c0 1.817749 -3.1727905 3.2913208 -7.086609 3.2913208l0 0c-3.9138489 0 -7.086609 -1.4735718 -7.086609 -3.2913208z" fill-rule="evenodd"/><g filter="url(#shadowFilter-p.2)"><use xlink:href="#p.2" transform="matrix(1.0 0.0 0.0 1.0 0.0 2.0)"/></g><defs><filter id="shadowFilter-p.2" filterUnits="userSpaceOnUse"><feGaussianBlur in="SourceAlpha" stdDeviation="2.0" result="blur"/><feComponentTransfer in="blur" color-interpolation-filters="sRGB"><feFuncR type="linear" slope="0" intercept="0.0"/><feFuncG type="linear" slope="0" intercept="0.0"/><feFuncB type="linear" slope="0" intercept="0.0"/><feFuncA type="linear" slope="0.5" intercept="0"/></feComponentTransfer></filter></defs><g id="p.2"><path fill="#000000" fill-opacity="0.0" d="m361.51706 560.33856l0 -45.73224" fill-rule="evenodd"/><path stroke="#000000" stroke-width="2.0" stroke-linejoin="round" stroke-linecap="butt" d="m361.51706 560.33856l0 -45.73224" fill-rule="evenodd"/></g><g filter="url(#shadowFilter-p.3)"><use xlink:href="#p.3" transform="matrix(1.0 0.0 0.0 1.0 0.0 2.0)"/></g><defs><filter id="shadowFilter-p.3" filterUnits="userSpaceOnUse"><feGaussianBlur in="SourceAlpha" stdDeviation="2.0" result="blur"/><feComponentTransfer in="blur" color-interpolation-filters="sRGB"><feFuncR type="linear" slope="0" intercept="0.0"/><feFuncG type="linear" slope="0" intercept="0.0"/><feFuncB type="linear" slope="0" intercept="0.0"/><feFuncA type="linear" slope="0.5" intercept="0"/></feComponentTransfer></filter></defs><g id="p.3"><path fill="#000000" fill-opacity="0.0" d="m334.83203 552.52496l0 -100.25198" fill-rule="evenodd"/><path stroke="#000000" stroke-width="2.0" stroke-linejoin="round" stroke-linecap="butt" d="m334.83203 552.52496l0 -100.25198" fill-rule="evenodd"/></g><g filter="url(#shadowFilter-p.4)"><use xlink:href="#p.4" transform="matrix(1.0 0.0 0.0 1.0 0.0 2.0)"/></g><defs><filter id="shadowFilter-p.4" filterUnits="userSpaceOnUse"><feGaussianBlur in="SourceAlpha" stdDeviation="2.0" result="blur"/><feComponentTransfer in="blur" color-interpolation-filters="sRGB"><feFuncR type="linear" slope="0" intercept="0.0"/><feFuncG type="linear" slope="0" intercept="0.0"/><feFuncB type="linear" slope="0" intercept="0.0"/><feFuncA type="linear" slope="0.5" intercept="0"/></feComponentTransfer></filter></defs><g id="p.4"><path fill="#000000" fill-opacity="0.0" d="m346.46194 567.4068l0 -45.73224" fill-rule="evenodd"/><path stroke="#000000" stroke-width="2.0" stroke-linejoin="round" stroke-linecap="butt" d="m346.46194 567.4068l0 -45.73224" fill-rule="evenodd"/></g><g filter="url(#shadowFilter-p.5)"><use xlink:href="#p.5" transform="matrix(1.0 0.0 0.0 1.0 0.0 8.0)"/></g><defs><filter id="shadowFilter-p.5" filterUnits="userSpaceOnUse"><feGaussianBlur in="SourceAlpha" stdDeviation="2.0" result="blur"/><feComponentTransfer in="blur" color-interpolation-filters="sRGB"><feFuncR type="linear" slope="0" intercept="0.0"/><feFuncG type="linear" slope="0" intercept="0.0"/><feFuncB type="linear" slope="0" intercept="0.0"/><feFuncA type="linear" slope="0.5" intercept="0"/></feComponentTransfer></filter></defs><g id="p.5"><path fill="#b4a7d6" fill-opacity="0.9" d="m323.18402 516.3979l0 0c0 -5.9664307 10.420837 -10.803192 23.275604 -10.803192l0 0c12.854736 0 23.275574 4.8367615 23.275574 10.803192l0 0c0 5.9663696 -10.420837 10.803101 -23.275574 10.803101l0 0c-12.854767 0 -23.275604 -4.836731 -23.275604 -10.803101z" fill-rule="evenodd"/></g><path fill="#000000" fill-opacity="0.0" d="m361.5869 509.17407l-7.3385925 4.0" fill-rule="evenodd"/><path stroke="#000000" stroke-width="2.0" stroke-linejoin="round" stroke-linecap="butt" d="m361.5869 509.17407l-7.3385925 4.0" fill-rule="evenodd"/><path fill="#666666" d="m353.653 509.24042l0 0c0 -1.817749 3.1727905 -3.2913208 7.086609 -3.2913208l0 0c3.9138184 0 7.086609 1.4735718 7.086609 3.2913208l0 0c0 1.8177795 -3.1727905 3.2913818 -7.086609 3.2913818l0 0c-3.9138184 0 -7.086609 -1.4736023 -7.086609 -3.2913818z" fill-rule="evenodd"/><path stroke="#000000" stroke-width="1.0" stroke-linejoin="round" stroke-linecap="butt" d="m353.653 509.24042l0 0c0 -1.817749 3.1727905 -3.2913208 7.086609 -3.2913208l0 0c3.9138184 0 7.086609 1.4735718 7.086609 3.2913208l0 0c0 1.8177795 -3.1727905 3.2913818 -7.086609 3.2913818l0 0c-3.9138184 0 -7.086609 -1.4736023 -7.086609 -3.2913818z" fill-rule="evenodd"/><path fill="#d9d2e9" d="m335.75363 518.4157l0 0c-2.4004822 -2.748352 0.44796753 -5.878845 6.362213 -6.9921265l0 0c5.914215 -1.1132812 12.654633 0.21224976 15.055115 2.9606323l0 0c2.4004822 2.748352 -0.44796753 5.878845 -6.362213 6.9921265l0 0c-5.914215 1.1132812 -12.654633 -0.21228027 -15.055115 -2.9606323z" fill-rule="evenodd"/><path stroke="#000000" stroke-width="1.0" stroke-linejoin="round" stroke-linecap="butt" d="m335.75363 518.4157l0 0c-2.4004822 -2.748352 0.44796753 -5.878845 6.362213 -6.9921265l0 0c5.914215 -1.1132812 12.654633 0.21224976 15.055115 2.9606323l0 0c2.4004822 2.748352 -0.44796753 5.878845 -6.362213 6.9921265l0 0c-5.914215 1.1132812 -12.654633 -0.21228027 -15.055115 -2.9606323z" fill-rule="evenodd"/><path fill="#666666" d="m339.36816 516.4021l0 0c0 -1.817749 3.17276 -3.2913818 7.086609 -3.2913818l0 0c3.9138184 0 7.086609 1.4736328 7.086609 3.2913818l0 0c0 1.817749 -3.1727905 3.2913208 -7.086609 3.2913208l0 0c-3.9138489 0 -7.086609 -1.4735718 -7.086609 -3.2913208z" fill-rule="evenodd"/><path stroke="#000000" stroke-width="1.0" stroke-linejoin="round" stroke-linecap="butt" d="m339.36816 516.4021l0 0c0 -1.817749 3.17276 -3.2913818 7.086609 -3.2913818l0 0c3.9138184 0 7.086609 1.4736328 7.086609 3.2913818l0 0c0 1.817749 -3.1727905 3.2913208 -7.086609 3.2913208l0 0c-3.9138489 0 -7.086609 -1.4735718 -7.086609 -3.2913208z" fill-rule="evenodd"/><g filter="url(#shadowFilter-p.6)"><use xlink:href="#p.6" transform="matrix(1.0 0.0 0.0 1.0 0.0 2.0)"/></g><defs><filter id="shadowFilter-p.6" filterUnits="userSpaceOnUse"><feGaussianBlur in="SourceAlpha" stdDeviation="2.0" result="blur"/><feComponentTransfer in="blur" color-interpolation-filters="sRGB"><feFuncR type="linear" slope="0" intercept="0.0"/><feFuncG type="linear" slope="0" intercept="0.0"/><feFuncB type="linear" slope="0" intercept="0.0"/><feFuncA type="linear" slope="0.5" intercept="0"/></feComponentTransfer></filter></defs><g id="p.6"><path fill="#000000" fill-opacity="0.0" d="m346.45407 516.0026l0 -48.346466" fill-rule="evenodd"/><path stroke="#000000" stroke-width="2.0" stroke-linejoin="round" stroke-linecap="butt" d="m346.45407 516.0026l0 -48.346466" fill-rule="evenodd"/></g><path fill="#d9d2e9" d="m379.61172 605.55l0 0c-2.4004822 -2.748413 0.44796753 -5.878845 6.3621826 -6.9921265l0 0c5.9142456 -1.1132812 12.654633 0.21221924 15.055115 2.9606323l0 0c2.4004822 2.748352 -0.44796753 5.878845 -6.3621826 6.9921265l0 0c-5.9142456 1.1132812 -12.654633 -0.21228027 -15.055115 -2.9606323z" fill-rule="evenodd"/><path stroke="#000000" stroke-width="1.0" stroke-linejoin="round" stroke-linecap="butt" d="m379.61172 605.55l0 0c-2.4004822 -2.748413 0.44796753 -5.878845 6.3621826 -6.9921265l0 0c5.9142456 -1.1132812 12.654633 0.21221924 15.055115 2.9606323l0 0c2.4004822 2.748352 -0.44796753 5.878845 -6.3621826 6.9921265l0 0c-5.9142456 1.1132812 -12.654633 -0.21228027 -15.055115 -2.9606323z" fill-rule="evenodd"/><path fill="#666666" d="m383.20267 603.5364l0 0c0 -1.81781 3.1727905 -3.2913818 7.086609 -3.2913818l0 0c3.9138184 0 7.086609 1.4735718 7.086609 3.2913818l0 0c0 1.817749 -3.1727905 3.2913208 -7.086609 3.2913208l0 0c-3.9138184 0 -7.086609 -1.4735718 -7.086609 -3.2913208z" fill-rule="evenodd"/><path stroke="#000000" stroke-width="1.0" stroke-linejoin="round" stroke-linecap="butt" d="m383.20267 603.5364l0 0c0 -1.81781 3.1727905 -3.2913818 7.086609 -3.2913818l0 0c3.9138184 0 7.086609 1.4735718 7.086609 3.2913818l0 0c0 1.817749 -3.1727905 3.2913208 -7.086609 3.2913208l0 0c-3.9138184 0 -7.086609 -1.4735718 -7.086609 -3.2913208z" fill-rule="evenodd"/><g filter="url(#shadowFilter-p.7)"><use xlink:href="#p.7" transform="matrix(1.0 0.0 0.0 1.0 0.0 8.0)"/></g><defs><filter id="shadowFilter-p.7" filterUnits="userSpaceOnUse"><feGaussianBlur in="SourceAlpha" stdDeviation="2.0" result="blur"/><feComponentTransfer in="blur" color-interpolation-filters="sRGB"><feFuncR type="linear" slope="0" intercept="0.0"/><feFuncG type="linear" slope="0" intercept="0.0"/><feFuncB type="linear" slope="0" intercept="0.0"/><feFuncA type="linear" slope="0.5" intercept="0"/></feComponentTransfer></filter></defs><g id="p.7"><path fill="#b4a7d6" fill-opacity="0.9" d="m308.75775 461.71643l0 0c0 -9.662811 16.879211 -17.496063 37.700775 -17.496063l0 0c20.821564 0 37.700806 7.833252 37.700806 17.496063l0 0c0 9.662811 -16.879242 17.496063 -37.700806 17.496063l0 0c-20.821564 0 -37.700775 -7.833252 -37.700775 -17.496063z" fill-rule="evenodd"/></g><path fill="#d9d2e9" d="m335.75363 463.732l0 0c-2.4004822 -2.7483826 0.44796753 -5.8788757 6.362213 -6.9921265l0 0c5.914215 -1.1132812 12.654633 0.21224976 15.055115 2.9606323l0 0c2.4004822 2.748352 -0.44796753 5.878845 -6.362213 6.9921265l0 0c-5.914215 1.1132507 -12.654633 -0.21228027 -15.055115 -2.9606323z" fill-rule="evenodd"/><path stroke="#000000" stroke-width="1.0" stroke-linejoin="round" stroke-linecap="butt" d="m335.75363 463.732l0 0c-2.4004822 -2.7483826 0.44796753 -5.8788757 6.362213 -6.9921265l0 0c5.914215 -1.1132812 12.654633 0.21224976 15.055115 2.9606323l0 0c2.4004822 2.748352 -0.44796753 5.878845 -6.362213 6.9921265l0 0c-5.914215 1.1132507 -12.654633 -0.21228027 -15.055115 -2.9606323z" fill-rule="evenodd"/><path fill="#666666" d="m339.36816 461.71835l0 0c0 -1.817749 3.17276 -3.2913208 7.086609 -3.2913208l0 0c3.9138184 0 7.086609 1.4735718 7.086609 3.2913208l0 0c0 1.817749 -3.1727905 3.2913513 -7.086609 3.2913513l0 0c-3.9138489 0 -7.086609 -1.4736023 -7.086609 -3.2913513z" fill-rule="evenodd"/><path stroke="#000000" stroke-width="1.0" stroke-linejoin="round" stroke-linecap="butt" d="m339.36816 461.71835l0 0c0 -1.817749 3.17276 -3.2913208 7.086609 -3.2913208l0 0c3.9138184 0 7.086609 1.4735718 7.086609 3.2913208l0 0c0 1.817749 -3.1727905 3.2913513 -7.086609 3.2913513l0 0c-3.9138489 0 -7.086609 -1.4736023 -7.086609 -3.2913513z" fill-rule="evenodd"/><path fill="#000000" fill-opacity="0.0" d="m346.45407 462.021l0 -90.519684" fill-rule="evenodd"/><path stroke="#000000" stroke-width="2.0" stroke-linejoin="round" stroke-linecap="butt" d="m346.45407 462.021l0 -90.519684" fill-rule="evenodd"/><path fill="#d9d2e9" d="m269.73203 574.1199l0 0c0.3479004 -2.9658203 5.7980347 -5.243164 12.173248 -5.086609l0 0c6.375183 0.15655518 11.261261 2.687683 10.913391 5.6535034l0 0c-0.3479004 2.9658203 -5.7980347 5.243164 -12.173248 5.086609l0 0c-6.375183 -0.15655518 -11.261261 -2.687683 -10.913391 -5.6535034z" fill-rule="evenodd"/><path stroke="#000000" stroke-width="1.0" stroke-linejoin="round" stroke-linecap="butt" d="m269.73203 574.1199l0 0c0.3479004 -2.9658203 5.7980347 -5.243164 12.173248 -5.086609l0 0c6.375183 0.15655518 11.261261 2.687683 10.913391 5.6535034l0 0c-0.3479004 2.9658203 -5.7980347 5.243164 -12.173248 5.086609l0 0c-6.375183 -0.15655518 -11.261261 -2.687683 -10.913391 -5.6535034z" fill-rule="evenodd"/><path fill="#666666" d="m274.19727 574.3956l0 0c0 -1.817749 3.1727905 -3.2913208 7.0866394 -3.2913208l0 0c3.9138184 0 7.086609 1.4735718 7.086609 3.2913208l0 0c0 1.817749 -3.1727905 3.2913208 -7.086609 3.2913208l0 0c-3.9138489 0 -7.0866394 -1.4735718 -7.0866394 -3.2913208z" fill-rule="evenodd"/><path stroke="#000000" stroke-width="1.0" stroke-linejoin="round" stroke-linecap="butt" d="m274.19727 574.3956l0 0c0 -1.817749 3.1727905 -3.2913208 7.0866394 -3.2913208l0 0c3.9138184 0 7.086609 1.4735718 7.086609 3.2913208l0 0c0 1.817749 -3.1727905 3.2913208 -7.086609 3.2913208l0 0c-3.9138489 0 -7.0866394 -1.4735718 -7.0866394 -3.2913208z" fill-rule="evenodd"/><g filter="url(#shadowFilter-p.8)"><use xlink:href="#p.8" transform="matrix(1.0 0.0 0.0 1.0 0.0 2.0)"/></g><defs><filter id="shadowFilter-p.8" filterUnits="userSpaceOnUse"><feGaussianBlur in="SourceAlpha" stdDeviation="2.0" result="blur"/><feComponentTransfer in="blur" color-interpolation-filters="sRGB"><feFuncR type="linear" slope="0" intercept="0.0"/><feFuncG type="linear" slope="0" intercept="0.0"/><feFuncB type="linear" slope="0" intercept="0.0"/><feFuncA type="linear" slope="0.5" intercept="0"/></feComponentTransfer></filter></defs><g id="p.8"><path fill="#000000" fill-opacity="0.0" d="m281.2877 574.0413l0 -101.48035" fill-rule="evenodd"/><path stroke="#000000" stroke-width="2.0" stroke-linejoin="round" stroke-linecap="butt" d="m281.2877 574.0413l0 -101.48035" fill-rule="evenodd"/></g><g filter="url(#shadowFilter-p.9)"><use xlink:href="#p.9" transform="matrix(1.0 0.0 0.0 1.0 0.0 8.0)"/></g><defs><filter id="shadowFilter-p.9" filterUnits="userSpaceOnUse"><feGaussianBlur in="SourceAlpha" stdDeviation="2.0" result="blur"/><feComponentTransfer in="blur" color-interpolation-filters="sRGB"><feFuncR type="linear" slope="0" intercept="0.0"/><feFuncG type="linear" slope="0" intercept="0.0"/><feFuncB type="linear" slope="0" intercept="0.0"/><feFuncA type="linear" slope="0.5" intercept="0"/></feComponentTransfer></filter></defs><g id="p.9"><path fill="#b4a7d6" fill-opacity="0.9" d="m243.58687 467.17456l0 0c0 -9.662811 16.879227 -17.496063 37.70079 -17.496063l0 0c20.821564 0 37.700775 7.833252 37.700775 17.496063l0 0c0 9.662811 -16.879211 17.496063 -37.700775 17.496063l0 0c-20.821564 0 -37.70079 -7.833252 -37.70079 -17.496063z" fill-rule="evenodd"/></g><path fill="#d9d2e9" d="m269.72864 467.19092l0 0c0 -2.9745178 5.1751404 -5.3928833 11.5590515 -5.401581l0 0c6.3838806 -0.00869751 11.5590515 2.3955688 11.5590515 5.3700867l0 0c0 2.9744873 -5.175171 5.392853 -11.5590515 5.4015503l0 0c-6.383911 0.00869751 -11.5590515 -2.3955688 -11.5590515 -5.370056z" fill-rule="evenodd"/><path stroke="#000000" stroke-width="1.0" stroke-linejoin="round" stroke-linecap="butt" d="m269.72864 467.19092l0 0c0 -2.9745178 5.1751404 -5.3928833 11.5590515 -5.401581l0 0c6.3838806 -0.00869751 11.5590515 2.3955688 11.5590515 5.3700867l0 0c0 2.9744873 -5.175171 5.392853 -11.5590515 5.4015503l0 0c-6.383911 0.00869751 -11.5590515 -2.3955688 -11.5590515 -5.370056z" fill-rule="evenodd"/><path fill="#666666" d="m274.02493 467.05576l0 0c0 -1.817749 3.1727905 -3.2913513 7.0866394 -3.2913513l0 0c3.9138184 0 7.086609 1.4736023 7.086609 3.2913513l0 0c0 1.817749 -3.1727905 3.2913208 -7.086609 3.2913208l0 0c-3.9138489 0 -7.0866394 -1.4735718 -7.0866394 -3.2913208z" fill-rule="evenodd"/><path stroke="#000000" stroke-width="1.0" stroke-linejoin="round" stroke-linecap="butt" d="m274.02493 467.05576l0 0c0 -1.817749 3.1727905 -3.2913513 7.0866394 -3.2913513l0 0c3.9138184 0 7.086609 1.4736023 7.086609 3.2913513l0 0c0 1.817749 -3.1727905 3.2913208 -7.086609 3.2913208l0 0c-3.9138489 0 -7.0866394 -1.4735718 -7.0866394 -3.2913208z" fill-rule="evenodd"/><g filter="url(#shadowFilter-p.10)"><use xlink:href="#p.10" transform="matrix(1.0 0.0 0.0 1.0 0.0 2.0)"/></g><defs><filter id="shadowFilter-p.10" filterUnits="userSpaceOnUse"><feGaussianBlur in="SourceAlpha" stdDeviation="2.0" result="blur"/><feComponentTransfer in="blur" color-interpolation-filters="sRGB"><feFuncR type="linear" slope="0" intercept="0.0"/><feFuncG type="linear" slope="0" intercept="0.0"/><feFuncB type="linear" slope="0" intercept="0.0"/><feFuncA type="linear" slope="0.5" intercept="0"/></feComponentTransfer></filter></defs><g id="p.10"><path fill="#000000" fill-opacity="0.0" d="m281.2877 467.41138l0 -80.97638" fill-rule="evenodd"/><path stroke="#000000" stroke-width="2.0" stroke-linejoin="round" stroke-linecap="butt" d="m281.2877 467.41138l0 -80.97638" fill-rule="evenodd"/></g><path fill="#d9d2e9" d="m222.31068 642.0426l0 0c-1.0523834 -2.9310303 3.1991425 -5.7089844 9.496063 -6.204712l0 0c6.296921 -0.49572754 12.2547 1.4783936 13.307083 4.409424l0 0c1.0523834 2.9310303 -3.1991425 5.7089844 -9.496063 6.204773l0 0c-6.2969055 0.49572754 -12.2547 -1.4784546 -13.307083 -4.409485z" fill-rule="evenodd"/><path stroke="#000000" stroke-width="1.0" stroke-linejoin="round" stroke-linecap="butt" d="m222.31068 642.0426l0 0c-1.0523834 -2.9310303 3.1991425 -5.7089844 9.496063 -6.204712l0 0c6.296921 -0.49572754 12.2547 1.4783936 13.307083 4.409424l0 0c1.0523834 2.9310303 -3.1991425 5.7089844 -9.496063 6.204773l0 0c-6.2969055 0.49572754 -12.2547 -1.4784546 -13.307083 -4.409485z" fill-rule="evenodd"/><path fill="#666666" d="m226.61299 641.1495l0 0c0 -1.817749 3.1727905 -3.2913208 7.086609 -3.2913208l0 0c3.9138336 0 7.086624 1.4735718 7.086624 3.2913208l0 0c0 1.817749 -3.1727905 3.2913208 -7.086624 3.2913208l0 0c-3.9138184 0 -7.086609 -1.4735718 -7.086609 -3.2913208z" fill-rule="evenodd"/><path stroke="#000000" stroke-width="1.0" stroke-linejoin="round" stroke-linecap="butt" d="m226.61299 641.1495l0 0c0 -1.817749 3.1727905 -3.2913208 7.086609 -3.2913208l0 0c3.9138336 0 7.086624 1.4735718 7.086624 3.2913208l0 0c0 1.817749 -3.1727905 3.2913208 -7.086624 3.2913208l0 0c-3.9138184 0 -7.086609 -1.4735718 -7.086609 -3.2913208z" fill-rule="evenodd"/><g filter="url(#shadowFilter-p.11)"><use xlink:href="#p.11" transform="matrix(1.0 0.0 0.0 1.0 0.0 2.0)"/></g><defs><filter id="shadowFilter-p.11" filterUnits="userSpaceOnUse"><feGaussianBlur in="SourceAlpha" stdDeviation="2.0" result="blur"/><feComponentTransfer in="blur" color-interpolation-filters="sRGB"><feFuncR type="linear" slope="0" intercept="0.0"/><feFuncG type="linear" slope="0" intercept="0.0"/><feFuncB type="linear" slope="0" intercept="0.0"/><feFuncA type="linear" slope="0.5" intercept="0"/></feComponentTransfer></filter></defs><g id="p.11"><path fill="#000000" fill-opacity="0.0" d="m233.7101 641.46576l0 -315.65353" fill-rule="evenodd"/><path stroke="#000000" stroke-width="2.0" stroke-linejoin="round" stroke-linecap="butt" d="m233.7101 641.46576l0 -315.65353" fill-rule="evenodd"/></g><g filter="url(#shadowFilter-p.12)"><use xlink:href="#p.12" transform="matrix(1.0 0.0 0.0 1.0 0.0 8.0)"/></g><defs><filter id="shadowFilter-p.12" filterUnits="userSpaceOnUse"><feGaussianBlur in="SourceAlpha" stdDeviation="2.0" result="blur"/><feComponentTransfer in="blur" color-interpolation-filters="sRGB"><feFuncR type="linear" slope="0" intercept="0.0"/><feFuncG type="linear" slope="0" intercept="0.0"/><feFuncB type="linear" slope="0" intercept="0.0"/><feFuncA type="linear" slope="0.5" intercept="0"/></feComponentTransfer></filter></defs><g id="p.12"><path fill="#b4a7d6" fill-opacity="0.9" d="m202.04562 381.04745l0 0c0 -20.317108 35.478775 -36.787384 79.24408 -36.787384l0 0c43.76532 0 79.24411 16.470276 79.24411 36.787384l0 0c0 20.317139 -35.47879 36.787415 -79.24411 36.787415l0 0c-43.765305 0 -79.24408 -16.470276 -79.24408 -36.787415z" fill-rule="evenodd"/></g><path fill="#000000" fill-opacity="0.0" d="m281.2877 381.18042l0 -106.39371" fill-rule="evenodd"/><path stroke="#000000" stroke-width="2.0" stroke-linejoin="round" stroke-linecap="butt" d="m281.2877 381.18042l0 -106.39371" fill-rule="evenodd"/><g filter="url(#shadowFilter-p.13)"><use xlink:href="#p.13" transform="matrix(1.0 0.0 0.0 1.0 0.0 8.0)"/></g><defs><filter id="shadowFilter-p.13" filterUnits="userSpaceOnUse"><feGaussianBlur in="SourceAlpha" stdDeviation="2.0" result="blur"/><feComponentTransfer in="blur" color-interpolation-filters="sRGB"><feFuncR type="linear" slope="0" intercept="0.0"/><feFuncG type="linear" slope="0" intercept="0.0"/><feFuncB type="linear" slope="0" intercept="0.0"/><feFuncA type="linear" slope="0.5" intercept="0"/></feComponentTransfer></filter></defs><g id="p.13"><path fill="#b4a7d6" fill-opacity="0.9" d="m149.67455 322.5165l0 0c0 -21.552155 37.629227 -39.02362 84.04724 -39.02362l0 0c46.418015 0 84.04726 17.471466 84.04726 39.02362l0 0c0 21.552124 -37.629242 39.02362 -84.04726 39.02362l0 0c-46.418015 0 -84.04724 -17.471497 -84.04724 -39.02362z" fill-rule="evenodd"/></g><g filter="url(#shadowFilter-p.14)"><use xlink:href="#p.14" transform="matrix(1.0 0.0 0.0 1.0 0.0 2.0)"/></g><defs><filter id="shadowFilter-p.14" filterUnits="userSpaceOnUse"><feGaussianBlur in="SourceAlpha" stdDeviation="2.0" result="blur"/><feComponentTransfer in="blur" color-interpolation-filters="sRGB"><feFuncR type="linear" slope="0" intercept="0.0"/><feFuncG type="linear" slope="0" intercept="0.0"/><feFuncB type="linear" slope="0" intercept="0.0"/><feFuncA type="linear" slope="0.5" intercept="0"/></feComponentTransfer></filter></defs><g id="p.14"><path fill="#000000" fill-opacity="0.0" d="m390.28928 604.3841l0 -373.57477" fill-rule="evenodd"/><path stroke="#000000" stroke-width="2.0" stroke-linejoin="round" stroke-linecap="butt" d="m390.28928 604.3841l0 -373.57477" fill-rule="evenodd"/></g><g filter="url(#shadowFilter-p.15)"><use xlink:href="#p.15" transform="matrix(1.0 0.0 0.0 1.0 0.0 8.0)"/></g><defs><filter id="shadowFilter-p.15" filterUnits="userSpaceOnUse"><feGaussianBlur in="SourceAlpha" stdDeviation="2.0" result="blur"/><feComponentTransfer in="blur" color-interpolation-filters="sRGB"><feFuncR type="linear" slope="0" intercept="0.0"/><feFuncG type="linear" slope="0" intercept="0.0"/><feFuncB type="linear" slope="0" intercept="0.0"/><feFuncA type="linear" slope="0.5" intercept="0"/></feComponentTransfer></filter></defs><g id="p.15"><path fill="#b4a7d6" fill-opacity="0.9" d="m264.68414 242.00577l0 0c0 -32.206467 56.24997 -58.314972 125.63779 -58.314972l0 0c69.38785 0 125.63779 26.108505 125.63779 58.314972l0 0c0 32.20645 -56.24994 58.31494 -125.63779 58.31494l0 0c-69.38782 0 -125.63779 -26.10849 -125.63779 -58.31494z" fill-rule="evenodd"/></g><path fill="#000000" fill-opacity="0.0" d="m288.19818 269.28146l93.95276 -23.464554" fill-rule="evenodd"/><path stroke="#000000" stroke-width="2.0" stroke-linejoin="round" stroke-linecap="butt" d="m288.19818 269.28146l93.95276 -23.464554" fill-rule="evenodd"/><path fill="#d9d2e9" d="m269.72864 381.0649l0 0c0 -2.9744873 5.1751404 -5.392853 11.5590515 -5.4015503l0 0c6.3838806 -0.00869751 11.5590515 2.3955688 11.5590515 5.370056l0 0c0 2.9745178 -5.175171 5.3928833 -11.5590515 5.401581l0 0c-6.383911 0.00869751 -11.5590515 -2.3955688 -11.5590515 -5.3700867z" fill-rule="evenodd"/><path stroke="#000000" stroke-width="1.0" stroke-linejoin="round" stroke-linecap="butt" d="m269.72864 381.0649l0 0c0 -2.9744873 5.1751404 -5.392853 11.5590515 -5.4015503l0 0c6.3838806 -0.00869751 11.5590515 2.3955688 11.5590515 5.370056l0 0c0 2.9745178 -5.175171 5.3928833 -11.5590515 5.401581l0 0c-6.383911 0.00869751 -11.5590515 -2.3955688 -11.5590515 -5.3700867z" fill-rule="evenodd"/><path fill="#666666" d="m274.02493 380.92978l0 0c0 -1.8177795 3.1727905 -3.2913513 7.0866394 -3.2913513l0 0c3.9138184 0 7.086609 1.4735718 7.086609 3.2913513l0 0c0 1.817749 -3.1727905 3.2913208 -7.086609 3.2913208l0 0c-3.9138489 0 -7.0866394 -1.4735718 -7.0866394 -3.2913208z" fill-rule="evenodd"/><path stroke="#000000" stroke-width="1.0" stroke-linejoin="round" stroke-linecap="butt" d="m274.02493 380.92978l0 0c0 -1.8177795 3.1727905 -3.2913513 7.0866394 -3.2913513l0 0c3.9138184 0 7.086609 1.4735718 7.086609 3.2913513l0 0c0 1.817749 -3.1727905 3.2913208 -7.086609 3.2913208l0 0c-3.9138489 0 -7.0866394 -1.4735718 -7.0866394 -3.2913208z" fill-rule="evenodd"/><path fill="#d9d2e9" d="m378.76276 242.02031l0 0c0 -2.9745178 5.175171 -5.3928833 11.5590515 -5.401581l0 0c6.3838806 -0.00869751 11.5590515 2.3955688 11.5590515 5.3700867l0 0c0 2.9745026 -5.175171 5.392868 -11.5590515 5.4015656l0 0c-6.3838806 0.00869751 -11.5590515 -2.3955688 -11.5590515 -5.3700714z" fill-rule="evenodd"/><path stroke="#000000" stroke-width="1.0" stroke-linejoin="round" stroke-linecap="butt" d="m378.76276 242.02031l0 0c0 -2.9745178 5.175171 -5.3928833 11.5590515 -5.401581l0 0c6.3838806 -0.00869751 11.5590515 2.3955688 11.5590515 5.3700867l0 0c0 2.9745026 -5.175171 5.392868 -11.5590515 5.4015656l0 0c-6.3838806 0.00869751 -11.5590515 -2.3955688 -11.5590515 -5.3700714z" fill-rule="evenodd"/><path fill="#666666" d="m383.05908 241.88515l0 0c0 -1.8177643 3.17276 -3.291336 7.086609 -3.291336l0 0c3.9138184 0 7.086609 1.4735718 7.086609 3.291336l0 0c0 1.817749 -3.1727905 3.291336 -7.086609 3.291336l0 0c-3.9138489 0 -7.086609 -1.473587 -7.086609 -3.291336z" fill-rule="evenodd"/><path stroke="#000000" stroke-width="1.0" stroke-linejoin="round" stroke-linecap="butt" d="m383.05908 241.88515l0 0c0 -1.8177643 3.17276 -3.291336 7.086609 -3.291336l0 0c3.9138184 0 7.086609 1.4735718 7.086609 3.291336l0 0c0 1.817749 -3.1727905 3.291336 -7.086609 3.291336l0 0c-3.9138489 0 -7.086609 -1.473587 -7.086609 -3.291336z" fill-rule="evenodd"/><g filter="url(#shadowFilter-p.16)"><use xlink:href="#p.16" transform="matrix(1.0 0.0 0.0 1.0 0.0 2.0)"/></g><defs><filter id="shadowFilter-p.16" filterUnits="userSpaceOnUse"><feGaussianBlur in="SourceAlpha" stdDeviation="2.0" result="blur"/><feComponentTransfer in="blur" color-interpolation-filters="sRGB"><feFuncR type="linear" slope="0" intercept="0.0"/><feFuncG type="linear" slope="0" intercept="0.0"/><feFuncB type="linear" slope="0" intercept="0.0"/><feFuncA type="linear" slope="0.5" intercept="0"/></feComponentTransfer></filter></defs><g id="p.16"><path fill="#000000" fill-opacity="0.0" d="m390.2966 241.79265l0 -93.889755" fill-rule="evenodd"/><path stroke="#000000" stroke-width="2.0" stroke-linejoin="round" stroke-linecap="butt" d="m390.2966 241.79265l0 -93.889755" fill-rule="evenodd"/></g><g filter="url(#shadowFilter-p.17)"><use xlink:href="#p.17" transform="matrix(1.0 0.0 0.0 1.0 0.0 8.0)"/></g><defs><filter id="shadowFilter-p.17" filterUnits="userSpaceOnUse"><feGaussianBlur in="SourceAlpha" stdDeviation="2.0" result="blur"/><feComponentTransfer in="blur" color-interpolation-filters="sRGB"><feFuncR type="linear" slope="0" intercept="0.0"/><feFuncG type="linear" slope="0" intercept="0.0"/><feFuncB type="linear" slope="0" intercept="0.0"/><feFuncA type="linear" slope="0.5" intercept="0"/></feComponentTransfer></filter></defs><g id="p.17"><path fill="#b4a7d6" fill-opacity="0.9" d="m211.54192 147.83202l0 0c0 -45.826584 80.03175 -82.97637 178.7559 -82.97637l0 0c98.72415 0 178.75589 37.149788 178.75589 82.97637l0 0c0 45.8266 -80.03174 82.97638 -178.75589 82.97638l0 0c-98.72415 0 -178.7559 -37.14978 -178.7559 -82.97638z" fill-rule="evenodd"/></g><path fill="#d9d2e9" d="m254.93073 590.561l0 0c0 -2.9744873 5.175171 -5.3928833 11.5590515 -5.4015503l0 0c6.383911 -0.008728027 11.5590515 2.3955688 11.5590515 5.370056l0 0c0 2.9745483 -5.1751404 5.3928833 -11.5590515 5.4016113l0 0c-6.3838806 0.008666992 -11.5590515 -2.3955688 -11.5590515 -5.370117z" fill-rule="evenodd"/><path stroke="#000000" stroke-width="1.0" stroke-linejoin="round" stroke-linecap="butt" d="m254.93073 590.561l0 0c0 -2.9744873 5.175171 -5.3928833 11.5590515 -5.4015503l0 0c6.383911 -0.008728027 11.5590515 2.3955688 11.5590515 5.370056l0 0c0 2.9745483 -5.1751404 5.3928833 -11.5590515 5.4016113l0 0c-6.3838806 0.008666992 -11.5590515 -2.3955688 -11.5590515 -5.370117z" fill-rule="evenodd"/><path fill="#666666" d="m259.22705 590.42584l0 0c0 -1.817749 3.1727905 -3.2913818 7.086609 -3.2913818l0 0c3.9138184 0 7.086609 1.4736328 7.086609 3.2913818l0 0c0 1.817749 -3.1727905 3.2913208 -7.086609 3.2913208l0 0c-3.9138184 0 -7.086609 -1.4735718 -7.086609 -3.2913208z" fill-rule="evenodd"/><path stroke="#000000" stroke-width="1.0" stroke-linejoin="round" stroke-linecap="butt" d="m259.22705 590.42584l0 0c0 -1.817749 3.1727905 -3.2913818 7.086609 -3.2913818l0 0c3.9138184 0 7.086609 1.4736328 7.086609 3.2913818l0 0c0 1.817749 -3.1727905 3.2913208 -7.086609 3.2913208l0 0c-3.9138184 0 -7.086609 -1.4735718 -7.086609 -3.2913208z" fill-rule="evenodd"/><path fill="#000000" fill-opacity="0.0" d="m347.9282 573.1205l0 0" fill-rule="evenodd"/><path stroke="#000000" stroke-width="1.0" stroke-linejoin="round" stroke-linecap="butt" d="m347.9282 573.1205l0 0" fill-rule="evenodd"/><path fill="#d9d2e9" d="m222.32118 323.414l0 0c-1.0523834 -2.9310303 3.1991425 -5.7089844 9.496063 -6.204712l0 0c6.296921 -0.49575806 12.2547 1.4784241 13.307083 4.409424l0 0c1.0523834 2.9310303 -3.1991425 5.7089844 -9.496063 6.2047424l0 0c-6.2969055 0.49575806 -12.2547 -1.4784241 -13.307083 -4.4094543z" fill-rule="evenodd"/><path stroke="#000000" stroke-width="1.0" stroke-linejoin="round" stroke-linecap="butt" d="m222.32118 323.414l0 0c-1.0523834 -2.9310303 3.1991425 -5.7089844 9.496063 -6.204712l0 0c6.296921 -0.49575806 12.2547 1.4784241 13.307083 4.409424l0 0c1.0523834 2.9310303 -3.1991425 5.7089844 -9.496063 6.2047424l0 0c-6.2969055 0.49575806 -12.2547 -1.4784241 -13.307083 -4.4094543z" fill-rule="evenodd"/><path fill="#666666" d="m226.62349 322.52087l0 0c0 -1.817749 3.1727905 -3.2913208 7.086609 -3.2913208l0 0c3.9138336 0 7.086624 1.4735718 7.086624 3.2913208l0 0c0 1.817749 -3.1727905 3.2913513 -7.086624 3.2913513l0 0c-3.9138184 0 -7.086609 -1.4736023 -7.086609 -3.2913513z" fill-rule="evenodd"/><path stroke="#000000" stroke-width="1.0" stroke-linejoin="round" stroke-linecap="butt" d="m226.62349 322.52087l0 0c0 -1.817749 3.1727905 -3.2913208 7.086609 -3.2913208l0 0c3.9138336 0 7.086624 1.4735718 7.086624 3.2913208l0 0c0 1.817749 -3.1727905 3.2913513 -7.086624 3.2913513l0 0c-3.9138184 0 -7.086609 -1.4736023 -7.086609 -3.2913513z" fill-rule="evenodd"/><g filter="url(#shadowFilter-p.18)"><use xlink:href="#p.18" transform="matrix(1.0 0.0 0.0 1.0 0.0 2.0)"/></g><defs><filter id="shadowFilter-p.18" filterUnits="userSpaceOnUse"><feGaussianBlur in="SourceAlpha" stdDeviation="2.0" result="blur"/><feComponentTransfer in="blur" color-interpolation-filters="sRGB"><feFuncR type="linear" slope="0" intercept="0.0"/><feFuncG type="linear" slope="0" intercept="0.0"/><feFuncB type="linear" slope="0" intercept="0.0"/><feFuncA type="linear" slope="0.5" intercept="0"/></feComponentTransfer></filter></defs><g id="p.18"><path fill="#000000" fill-opacity="0.0" d="m233.7966 322.5177l-0.1889801 -133.7323" fill-rule="evenodd"/><path stroke="#000000" stroke-width="2.0" stroke-linejoin="round" stroke-linecap="butt" d="m233.7966 322.5177l-0.1889801 -133.7323" fill-rule="evenodd"/></g><path fill="#666666" d="m226.52101 185.49406l0 0c0 -1.817749 3.1727905 -3.291336 7.086609 -3.291336l0 0c3.9138336 0 7.086624 1.473587 7.086624 3.291336l0 0c0 1.8177643 -3.1727905 3.291336 -7.086624 3.291336l0 0c-3.9138184 0 -7.086609 -1.4735718 -7.086609 -3.291336z" fill-rule="evenodd"/><path stroke="#000000" stroke-width="1.0" stroke-linejoin="round" stroke-linecap="butt" d="m226.52101 185.49406l0 0c0 -1.817749 3.1727905 -3.291336 7.086609 -3.291336l0 0c3.9138336 0 7.086624 1.473587 7.086624 3.291336l0 0c0 1.8177643 -3.1727905 3.291336 -7.086624 3.291336l0 0c-3.9138184 0 -7.086609 -1.4735718 -7.086609 -3.291336z" fill-rule="evenodd"/><path fill="#000000" fill-opacity="0.0" d="m240.69424 185.49406l142.86615 -33.291336" fill-rule="evenodd"/><path stroke="#000000" stroke-width="2.0" stroke-linejoin="round" stroke-linecap="butt" d="m240.69424 185.49406l142.86615 -33.291336" fill-rule="evenodd"/><path fill="#666666" d="m274.02493 269.28146l0 0c0 -1.817749 3.1727905 -3.2913208 7.0866394 -3.2913208l0 0c3.9138184 0 7.086609 1.4735718 7.086609 3.2913208l0 0c0 1.817749 -3.1727905 3.2913513 -7.086609 3.2913513l0 0c-3.9138489 0 -7.0866394 -1.4736023 -7.0866394 -3.2913513z" fill-rule="evenodd"/><path stroke="#000000" stroke-width="1.0" stroke-linejoin="round" stroke-linecap="butt" d="m274.02493 269.28146l0 0c0 -1.817749 3.1727905 -3.2913208 7.0866394 -3.2913208l0 0c3.9138184 0 7.086609 1.4735718 7.086609 3.2913208l0 0c0 1.817749 -3.1727905 3.2913513 -7.086609 3.2913513l0 0c-3.9138489 0 -7.0866394 -1.4736023 -7.0866394 -3.2913513z" fill-rule="evenodd"/><g filter="url(#shadowFilter-p.19)"><use xlink:href="#p.19" transform="matrix(1.0 0.0 0.0 1.0 0.0 2.0)"/></g><defs><filter id="shadowFilter-p.19" filterUnits="userSpaceOnUse"><feGaussianBlur in="SourceAlpha" stdDeviation="2.0" result="blur"/><feComponentTransfer in="blur" color-interpolation-filters="sRGB"><feFuncR type="linear" slope="0" intercept="0.0"/><feFuncG type="linear" slope="0" intercept="0.0"/><feFuncB type="linear" slope="0" intercept="0.0"/><feFuncA type="linear" slope="0.5" intercept="0"/></feComponentTransfer></filter></defs><g id="p.19"><path fill="#000000" fill-opacity="0.0" d="m266.73624 589.7159l-0.5984192 -103.71655" fill-rule="evenodd"/><path stroke="#000000" stroke-width="2.0" stroke-linejoin="round" stroke-linecap="butt" d="m266.73624 589.7159l-0.5984192 -103.71655" fill-rule="evenodd"/></g><g filter="url(#shadowFilter-p.20)"><use xlink:href="#p.20" transform="matrix(1.0 0.0 0.0 1.0 1.0 0.0)"/></g><defs><filter id="shadowFilter-p.20" filterUnits="userSpaceOnUse"><feGaussianBlur in="SourceAlpha" stdDeviation="1.0" result="blur"/><feComponentTransfer in="blur" color-interpolation-filters="sRGB"><feFuncR type="linear" slope="0" intercept="0.0"/><feFuncG type="linear" slope="0" intercept="0.0"/><feFuncB type="linear" slope="0" intercept="0.0"/><feFuncA type="linear" slope="0.5" intercept="0"/></feComponentTransfer></filter></defs><g id="p.20"><path fill="#d9d2e9" d="m378.8864 148.72835l0 0c-1.0523682 -2.931015 3.1991577 -5.708969 9.496063 -6.204712l0 0c6.2969055 -0.49575806 12.2547 1.4784241 13.307098 4.409439l0 0c1.0523682 2.9310303 -3.1991577 5.708969 -9.496063 6.204727l0 0c-6.296936 0.49575806 -12.2547 -1.4784241 -13.307098 -4.4094543z" fill-rule="evenodd"/><path stroke="#000000" stroke-width="1.0" stroke-linejoin="round" stroke-linecap="butt" d="m378.8864 148.72835l0 0c-1.0523682 -2.931015 3.1991577 -5.708969 9.496063 -6.204712l0 0c6.2969055 -0.49575806 12.2547 1.4784241 13.307098 4.409439l0 0c1.0523682 2.9310303 -3.1991577 5.708969 -9.496063 6.204727l0 0c-6.296936 0.49575806 -12.2547 -1.4784241 -13.307098 -4.4094543z" fill-rule="evenodd"/></g><path fill="#666666" d="m384.3369 146.05191l0 0c2.1221924 -1.5307312 6.50766 -1.9749298 9.795288 -0.99212646l0 0c3.2876282 0.98280334 4.2323914 3.0204468 2.1102295 4.551178l0 0c-2.1221619 1.5307465 -6.50766 1.9749451 -9.795258 0.99212646l0 0c-3.2876282 -0.98280334 -4.232422 -3.0204315 -2.11026 -4.551178z" fill-rule="evenodd"/><path stroke="#000000" stroke-width="1.0" stroke-linejoin="round" stroke-linecap="butt" d="m384.3369 146.05191l0 0c2.1221924 -1.5307312 6.50766 -1.9749298 9.795288 -0.99212646l0 0c3.2876282 0.98280334 4.2323914 3.0204468 2.1102295 4.551178l0 0c-2.1221619 1.5307465 -6.50766 1.9749451 -9.795258 0.99212646l0 0c-3.2876282 -0.98280334 -4.232422 -3.0204315 -2.11026 -4.551178z" fill-rule="evenodd"/><path fill="#666666" d="m311.0021 314.91235l0 0c0 -1.817749 3.17276 -3.2913513 7.086609 -3.2913513l0 0c3.9138184 0 7.086609 1.4736023 7.086609 3.2913513l0 0c0 1.817749 -3.1727905 3.2913208 -7.086609 3.2913208l0 0c-3.9138489 0 -7.086609 -1.4735718 -7.086609 -3.2913208z" fill-rule="evenodd"/><path stroke="#000000" stroke-width="1.0" stroke-linejoin="round" stroke-linecap="butt" d="m311.0021 314.91235l0 0c0 -1.817749 3.17276 -3.2913513 7.086609 -3.2913513l0 0c3.9138184 0 7.086609 1.4736023 7.086609 3.2913513l0 0c0 1.817749 -3.1727905 3.2913208 -7.086609 3.2913208l0 0c-3.9138489 0 -7.086609 -1.4735718 -7.086609 -3.2913208z" fill-rule="evenodd"/><g filter="url(#shadowFilter-p.21)"><use xlink:href="#p.21" transform="matrix(1.0 0.0 0.0 1.0 0.0 2.0)"/></g><defs><filter id="shadowFilter-p.21" filterUnits="userSpaceOnUse"><feGaussianBlur in="SourceAlpha" stdDeviation="2.0" result="blur"/><feComponentTransfer in="blur" color-interpolation-filters="sRGB"><feFuncR type="linear" slope="0" intercept="0.0"/><feFuncG type="linear" slope="0" intercept="0.0"/><feFuncB type="linear" slope="0" intercept="0.0"/><feFuncA type="linear" slope="0.5" intercept="0"/></feComponentTransfer></filter></defs><g id="p.21"><path fill="#000000" fill-opacity="0.0" d="m281.11157 272.5728l0.18896484 56.0" fill-rule="evenodd"/><path stroke="#000000" stroke-width="2.0" stroke-linejoin="round" stroke-linecap="butt" d="m281.11157 272.5728l0.18896484 56.0" fill-rule="evenodd"/></g><path fill="#000000" fill-opacity="0.0" d="m281.28873 355.45407l0 25.669281" fill-rule="evenodd"/><path stroke="#000000" stroke-width="2.0" stroke-linejoin="round" stroke-linecap="butt" d="m281.28873 355.45407l0 25.669281" fill-rule="evenodd"/><path fill="#000000" fill-opacity="0.0" d="m245.12433 321.6187l65.88977 -6.7086487" fill-rule="evenodd"/><path stroke="#000000" stroke-width="2.0" stroke-linejoin="round" stroke-linecap="butt" d="m245.12433 321.6187l65.88977 -6.7086487" fill-rule="evenodd"/><g filter="url(#shadowFilter-p.22)"><use xlink:href="#p.22" transform="matrix(1.0 0.0 0.0 1.0 0.0 2.0)"/></g><defs><filter id="shadowFilter-p.22" filterUnits="userSpaceOnUse"><feGaussianBlur in="SourceAlpha" stdDeviation="2.0" result="blur"/><feComponentTransfer in="blur" color-interpolation-filters="sRGB"><feFuncR type="linear" slope="0" intercept="0.0"/><feFuncG type="linear" slope="0" intercept="0.0"/><feFuncB type="linear" slope="0" intercept="0.0"/><feFuncA type="linear" slope="0.5" intercept="0"/></feComponentTransfer></filter></defs><g id="p.22"><path fill="#000000" fill-opacity="0.0" d="m233.72179 361.54013l0 16.15747" fill-rule="evenodd"/><path stroke="#000000" stroke-width="2.0" stroke-linejoin="round" stroke-linecap="butt" d="m233.72179 361.54013l0 16.15747" fill-rule="evenodd"/></g><g filter="url(#shadowFilter-p.23)"><use xlink:href="#p.23" transform="matrix(1.0 0.0 0.0 1.0 0.0 2.0)"/></g><defs><filter id="shadowFilter-p.23" filterUnits="userSpaceOnUse"><feGaussianBlur in="SourceAlpha" stdDeviation="2.0" result="blur"/><feComponentTransfer in="blur" color-interpolation-filters="sRGB"><feFuncR type="linear" slope="0" intercept="0.0"/><feFuncG type="linear" slope="0" intercept="0.0"/><feFuncB type="linear" slope="0" intercept="0.0"/><feFuncA type="linear" slope="0.5" intercept="0"/></feComponentTransfer></filter></defs><g id="p.23"><path fill="#000000" fill-opacity="0.0" d="m318.08923 342.3937l0 25.070862" fill-rule="evenodd"/><path stroke="#000000" stroke-width="2.0" stroke-linejoin="round" stroke-linecap="butt" d="m318.08923 342.3937l0 25.070862" fill-rule="evenodd"/></g><path fill="#000000" fill-opacity="0.0" d="m292.84674 381.03342l48.59842 -10.48819" fill-rule="evenodd"/><path stroke="#000000" stroke-width="2.0" stroke-linejoin="round" stroke-linecap="butt" d="m292.84674 381.03342l48.59842 -10.48819" fill-rule="evenodd"/><path fill="#000000" fill-opacity="0.0" d="m275.1488 471.65625l-10.425201 10.425201" fill-rule="evenodd"/><path stroke="#000000" stroke-width="2.0" stroke-linejoin="round" stroke-linecap="butt" d="m275.1488 471.65625l-10.425201 10.425201" fill-rule="evenodd"/><path fill="#666666" d="m259.05118 482.70798l0 0c0 -1.817749 3.1727905 -3.2913513 7.0866394 -3.2913513l0 0c3.9138184 0 7.086609 1.4736023 7.086609 3.2913513l0 0c0 1.817749 -3.1727905 3.2913513 -7.086609 3.2913513l0 0c-3.9138489 0 -7.0866394 -1.4736023 -7.0866394 -3.2913513z" fill-rule="evenodd"/><path stroke="#000000" stroke-width="1.0" stroke-linejoin="round" stroke-linecap="butt" d="m259.05118 482.70798l0 0c0 -1.817749 3.1727905 -3.2913513 7.0866394 -3.2913513l0 0c3.9138184 0 7.086609 1.4736023 7.086609 3.2913513l0 0c0 1.817749 -3.1727905 3.2913513 -7.086609 3.2913513l0 0c-3.9138489 0 -7.0866394 -1.4736023 -7.0866394 -3.2913513z" fill-rule="evenodd"/><path fill="#000000" fill-opacity="0.0" d="m342.11584 456.73987l-7.0236206 -10.173248" fill-rule="evenodd"/><path stroke="#000000" stroke-width="2.0" stroke-linejoin="round" stroke-linecap="butt" d="m342.11584 456.73987l-7.0236206 -10.173248" fill-rule="evenodd"/><path fill="#666666" d="m339.36816 368.20523l0 0c0 -1.817749 3.17276 -3.2913208 7.086609 -3.2913208l0 0c3.9138184 0 7.086609 1.4735718 7.086609 3.2913208l0 0c0 1.817749 -3.1727905 3.2913513 -7.086609 3.2913513l0 0c-3.9138489 0 -7.086609 -1.4736023 -7.086609 -3.2913513z" fill-rule="evenodd"/><path stroke="#000000" stroke-width="1.0" stroke-linejoin="round" stroke-linecap="butt" d="m339.36816 368.20523l0 0c0 -1.817749 3.17276 -3.2913208 7.086609 -3.2913208l0 0c3.9138184 0 7.086609 1.4735718 7.086609 3.2913208l0 0c0 1.817749 -3.1727905 3.2913513 -7.086609 3.2913513l0 0c-3.9138489 0 -7.086609 -1.4736023 -7.086609 -3.2913513z" fill-rule="evenodd"/><path fill="#666666" d="m328.37604 447.0741l0 0c0 -1.817749 3.17276 -3.2913513 7.086609 -3.2913513l0 0c3.9138184 0 7.086609 1.4736023 7.086609 3.2913513l0 0c0 1.817749 -3.1727905 3.2913208 -7.086609 3.2913208l0 0c-3.9138489 0 -7.086609 -1.4735718 -7.086609 -3.2913208z" fill-rule="evenodd"/><path stroke="#000000" stroke-width="1.0" stroke-linejoin="round" stroke-linecap="butt" d="m328.37604 447.0741l0 0c0 -1.817749 3.17276 -3.2913513 7.086609 -3.2913513l0 0c3.9138184 0 7.086609 1.4736023 7.086609 3.2913513l0 0c0 1.817749 -3.1727905 3.2913208 -7.086609 3.2913208l0 0c-3.9138489 0 -7.086609 -1.4735718 -7.086609 -3.2913208z" fill-rule="evenodd"/></g></svg>