<svg version="1.1" viewBox="0.0 0.0 527.6771653543307 412.06561679790025" fill="none" stroke="none" stroke-linecap="square" stroke-miterlimit="10" xmlns:xlink="http://www.w3.org/1999/xlink" xmlns="http://www.w3.org/2000/svg"><clipPath id="p.0"><path d="m0 0l527.6772 0l0 412.0656l-527.6772 0l0 -412.0656z" clip-rule="nonzero"/></clipPath><g clip-path="url(#p.0)"><path fill="#000000" fill-opacity="0.0" d="m0 0l527.6772 0l0 412.0656l-527.6772 0z" fill-rule="evenodd"/><path fill="#000000" fill-opacity="0.0" d="m217.98163 87.055115l0 91.49606" fill-rule="evenodd"/><path stroke="#000000" stroke-width="2.0" stroke-linejoin="round" stroke-linecap="butt" d="m217.98163 87.055115l0 91.49606" fill-rule="evenodd"/><path fill="#000000" fill-opacity="0.0" d="m286.72964 228.95538l0 98.078735" fill-rule="evenodd"/><path stroke="#000000" stroke-width="2.0" stroke-linejoin="round" stroke-linecap="butt" d="m286.72964 228.95538l0 98.078735" fill-rule="evenodd"/><path fill="#000000" fill-opacity="0.0" d="m335.6916 326.88583l-85.13385 0" fill-rule="evenodd"/><path stroke="#000000" stroke-width="2.0" stroke-linejoin="round" stroke-linecap="butt" d="m335.6916 326.88583l-85.13385 0" fill-rule="evenodd"/><path fill="#000000" fill-opacity="0.0" d="m300.3517 326.88715l-0.09448242 86.64566" fill-rule="evenodd"/><path stroke="#000000" stroke-width="2.0" stroke-linejoin="round" stroke-linecap="butt" d="m300.3517 326.88715l-0.09448242 86.64566" fill-rule="evenodd"/><path fill="#000000" fill-opacity="0.0" d="m335.6916 226.8189l0 185.60631" fill-rule="evenodd"/><path stroke="#000000" stroke-width="2.0" stroke-linejoin="round" stroke-linecap="butt" d="m335.6916 226.8189l0 185.60631" fill-rule="evenodd"/><path fill="#000000" fill-opacity="0.0" d="m437.92126 316.8819l0 97.5748" fill-rule="evenodd"/><path stroke="#000000" stroke-width="2.0" stroke-linejoin="round" stroke-linecap="butt" d="m437.92126 316.8819l0 97.5748" fill-rule="evenodd"/><path fill="#000000" fill-opacity="0.0" d="m529.81104 316.8819l-194.14175 0" fill-rule="evenodd"/><path stroke="#000000" stroke-width="2.0" stroke-linejoin="round" stroke-linecap="butt" d="m529.81104 316.8819l-194.14175 0" fill-rule="evenodd"/><path fill="#000000" fill-opacity="0.0" d="m380.29398 227.30183l0 89.511826" fill-rule="evenodd"/><path stroke="#000000" stroke-width="2.0" stroke-linejoin="round" stroke-linecap="butt" d="m380.29398 227.30183l0 89.511826" fill-rule="evenodd"/><path fill="#000000" fill-opacity="0.0" d="m435.09186 -0.79790026l0 127.08661" fill-rule="evenodd"/><path stroke="#000000" stroke-width="2.0" stroke-linejoin="round" stroke-linecap="butt" d="m435.09186 -0.79790026l0 127.08661" fill-rule="evenodd"/><path fill="#000000" fill-opacity="0.0" d="m530.7323 126.031494l-112.72443 0" fill-rule="evenodd"/><path stroke="#000000" stroke-width="2.0" stroke-linejoin="round" stroke-linecap="butt" d="m530.7323 126.031494l-112.72443 0" fill-rule="evenodd"/><path fill="#000000" fill-opacity="0.0" d="m467.92126 125.149605l0 102.14173" fill-rule="evenodd"/><path stroke="#000000" stroke-width="2.0" stroke-linejoin="round" stroke-linecap="butt" d="m467.92126 125.149605l0 102.14173" fill-rule="evenodd"/><path fill="#000000" fill-opacity="0.0" d="m418.0105 -0.18897638l0 227.52756" fill-rule="evenodd"/><path stroke="#000000" stroke-width="2.0" stroke-linejoin="round" stroke-linecap="butt" d="m418.0105 -0.18897638l0 227.52756" fill-rule="evenodd"/><path fill="#000000" fill-opacity="0.0" d="m416.76642 131.82283l-167.02364 0" fill-rule="evenodd"/><path stroke="#000000" stroke-width="2.0" stroke-linejoin="round" stroke-linecap="butt" d="m416.76642 131.82283l-167.02364 0" fill-rule="evenodd"/><path fill="#000000" fill-opacity="0.0" d="m318.95145 131.82414l0 95.46457" fill-rule="evenodd"/><path stroke="#000000" stroke-width="2.0" stroke-linejoin="round" stroke-linecap="butt" d="m318.95145 131.82414l0 95.46457" fill-rule="evenodd"/><path fill="#000000" fill-opacity="0.0" d="m529.9055 227.35432l-280.97638 0" fill-rule="evenodd"/><path stroke="#000000" stroke-width="3.0" stroke-linejoin="round" stroke-linecap="butt" d="m529.9055 227.35432l-280.97638 0" fill-rule="evenodd"/><path fill="#000000" fill-opacity="0.0" d="m333.72177 -2.0131233l0 134.29921" fill-rule="evenodd"/><path stroke="#000000" stroke-width="2.0" stroke-linejoin="round" stroke-linecap="butt" d="m333.72177 -2.0131233l0 134.29921" fill-rule="evenodd"/><path fill="#000000" fill-opacity="0.0" d="m227.43701 0.53543305l0.5354309 86.58268" fill-rule="evenodd"/><path stroke="#000000" stroke-width="2.0" stroke-linejoin="round" stroke-linecap="butt" d="m227.43701 0.53543305l0.5354309 86.58268" fill-rule="evenodd"/><path fill="#000000" fill-opacity="0.0" d="m248.91339 87.085304l-50.4252 0" fill-rule="evenodd"/><path stroke="#000000" stroke-width="2.0" stroke-linejoin="round" stroke-linecap="butt" d="m248.91339 87.085304l-50.4252 0" fill-rule="evenodd"/><path fill="#000000" fill-opacity="0.0" d="m198.54068 0l-0.5984192 179.59055" fill-rule="evenodd"/><path stroke="#000000" stroke-width="2.0" stroke-linejoin="round" stroke-linecap="butt" d="m198.54068 0l-0.5984192 179.59055" fill-rule="evenodd"/><path fill="#000000" fill-opacity="0.0" d="m146.32283 129.55905l0 49.795273" fill-rule="evenodd"/><path stroke="#000000" stroke-width="2.0" stroke-linejoin="round" stroke-linecap="butt" d="m146.32283 129.55905l0 49.795273" fill-rule="evenodd"/><path fill="#000000" fill-opacity="0.0" d="m198.53937 128.73885l-198.26772 0" fill-rule="evenodd"/><path stroke="#000000" stroke-width="2.0" stroke-linejoin="round" stroke-linecap="butt" d="m198.53937 128.73885l-198.26772 0" fill-rule="evenodd"/><path fill="#000000" fill-opacity="0.0" d="m74.973755 -0.32283464l0 127.49606" fill-rule="evenodd"/><path stroke="#000000" stroke-width="2.0" stroke-linejoin="round" stroke-linecap="butt" d="m74.973755 -0.32283464l0 127.49606" fill-rule="evenodd"/><path fill="#000000" fill-opacity="0.0" d="m195.9895 279.59186l0 132.0" fill-rule="evenodd"/><path stroke="#000000" stroke-width="2.0" stroke-linejoin="round" stroke-linecap="butt" d="m195.9895 279.59186l0 132.0" fill-rule="evenodd"/><path fill="#000000" fill-opacity="0.0" d="m152.75066 180.19423l0 99.11812" fill-rule="evenodd"/><path stroke="#000000" stroke-width="2.0" stroke-linejoin="round" stroke-linecap="butt" d="m152.75066 180.19423l0 99.11812" fill-rule="evenodd"/><path fill="#000000" fill-opacity="0.0" d="m247.26247 279.78217l-129.88977 0" fill-rule="evenodd"/><path stroke="#000000" stroke-width="2.0" stroke-linejoin="round" stroke-linecap="butt" d="m247.26247 279.78217l-129.88977 0" fill-rule="evenodd"/><path fill="#000000" fill-opacity="0.0" d="m89.37008 272.5328l0 138.23624" fill-rule="evenodd"/><path stroke="#000000" stroke-width="2.0" stroke-linejoin="round" stroke-linecap="butt" d="m89.37008 272.5328l0 138.23624" fill-rule="evenodd"/><path fill="#000000" fill-opacity="0.0" d="m117.350395 272.3058l-117.07087 0" fill-rule="evenodd"/><path stroke="#000000" stroke-width="2.0" stroke-linejoin="round" stroke-linecap="butt" d="m117.350395 272.3058l-117.07087 0" fill-rule="evenodd"/><path fill="#000000" fill-opacity="0.0" d="m117.350395 180.0105l0 232.40945" fill-rule="evenodd"/><path stroke="#000000" stroke-width="2.0" stroke-linejoin="round" stroke-linecap="butt" d="m117.350395 180.0105l0 232.40945" fill-rule="evenodd"/><path fill="#000000" fill-opacity="0.0" d="m38.666668 179.01837l0 92.91339" fill-rule="evenodd"/><path stroke="#000000" stroke-width="2.0" stroke-linejoin="round" stroke-linecap="butt" d="m38.666668 179.01837l0 92.91339" fill-rule="evenodd"/><path fill="#ffffff" d="m33.341206 242.67455l0 0c0 -3.0527954 2.4747734 -5.5275574 5.527561 -5.5275574l0 0c1.4659996 0 2.8719559 0.58236694 3.9085732 1.6189728c1.0366211 1.0366211 1.6189842 2.4425812 1.6189842 3.9085846l0 0c0 3.0527802 -2.4747696 5.5275574 -5.5275574 5.5275574l0 0c-3.0527878 0 -5.527561 -2.4747772 -5.527561 -5.5275574z" fill-rule="evenodd"/><path stroke="#000000" stroke-width="1.0" stroke-linejoin="round" stroke-linecap="butt" d="m33.341206 242.67455l0 0c0 -3.0527954 2.4747734 -5.5275574 5.527561 -5.5275574l0 0c1.4659996 0 2.8719559 0.58236694 3.9085732 1.6189728c1.0366211 1.0366211 1.6189842 2.4425812 1.6189842 3.9085846l0 0c0 3.0527802 -2.4747696 5.5275574 -5.5275574 5.5275574l0 0c-3.0527878 0 -5.527561 -2.4747772 -5.527561 -5.5275574z" fill-rule="evenodd"/><path fill="#000000" fill-opacity="0.0" d="m248.91339 180.00919l-248.91339 0.5354309" fill-rule="evenodd"/><path stroke="#000000" stroke-width="3.0" stroke-linejoin="round" stroke-linecap="butt" d="m248.91339 180.00919l-248.91339 0.5354309" fill-rule="evenodd"/><path fill="#000000" fill-opacity="0.0" d="m248.15749 -0.6614173l0 413.10236" fill-rule="evenodd"/><path stroke="#000000" stroke-width="3.0" stroke-linejoin="round" stroke-linecap="butt" d="m248.15749 -0.6614173l0 413.10236" fill-rule="evenodd"/><path fill="#ffffff" d="m68.00525 87.08662l0 0c0 -3.0527878 2.4747696 -5.527565 5.5275574 -5.527565l0 0c1.4660034 0 2.8719559 0.58236694 3.908577 1.618988c1.0366211 1.0366211 1.6189804 2.4425735 1.6189804 3.908577l0 0c0 3.0527878 -2.4747696 5.5275574 -5.5275574 5.5275574l0 0c-3.0527878 0 -5.5275574 -2.4747696 -5.5275574 -5.5275574z" fill-rule="evenodd"/><path stroke="#000000" stroke-width="1.0" stroke-linejoin="round" stroke-linecap="butt" d="m68.00525 87.08662l0 0c0 -3.0527878 2.4747696 -5.527565 5.5275574 -5.527565l0 0c1.4660034 0 2.8719559 0.58236694 3.908577 1.618988c1.0366211 1.0366211 1.6189804 2.4425735 1.6189804 3.908577l0 0c0 3.0527878 -2.4747696 5.5275574 -5.5275574 5.5275574l0 0c-3.0527878 0 -5.5275574 -2.4747696 -5.5275574 -5.5275574z" fill-rule="evenodd"/><path fill="#ffffff" d="m83.83596 128.34645l0 0c0 -3.0527802 2.4747696 -5.5275497 5.5275574 -5.5275497l0 0c1.4659958 0 2.8719559 0.5823593 3.908577 1.6189804c1.0366135 1.0366211 1.6189804 2.4425735 1.6189804 3.9085693l0 0c0 3.0527954 -2.4747696 5.5275574 -5.5275574 5.5275574l0 0c-3.0527878 0 -5.5275574 -2.474762 -5.5275574 -5.5275574z" fill-rule="evenodd"/><path stroke="#000000" stroke-width="1.0" stroke-linejoin="round" stroke-linecap="butt" d="m83.83596 128.34645l0 0c0 -3.0527802 2.4747696 -5.5275497 5.5275574 -5.5275497l0 0c1.4659958 0 2.8719559 0.5823593 3.908577 1.6189804c1.0366135 1.0366211 1.6189804 2.4425735 1.6189804 3.9085693l0 0c0 3.0527954 -2.4747696 5.5275574 -5.5275574 5.5275574l0 0c-3.0527878 0 -5.5275574 -2.474762 -5.5275574 -5.5275574z" fill-rule="evenodd"/><path fill="#ffffff" d="m412.48294 62.69029l0 0c0 -3.0527878 2.474762 -5.5275574 5.5275574 -5.5275574l0 0c1.4660034 0 2.8719482 0.5823631 3.9085693 1.6189842c1.0366211 1.0366173 1.618988 2.4425735 1.618988 3.9085732l0 0c0 3.052784 -2.474762 5.527561 -5.5275574 5.527561l0 0c-3.0527954 0 -5.5275574 -2.4747772 -5.5275574 -5.527561z" fill-rule="evenodd"/><path stroke="#000000" stroke-width="1.0" stroke-linejoin="round" stroke-linecap="butt" d="m412.48294 62.69029l0 0c0 -3.0527878 2.474762 -5.5275574 5.5275574 -5.5275574l0 0c1.4660034 0 2.8719482 0.5823631 3.9085693 1.6189842c1.0366211 1.0366173 1.618988 2.4425735 1.618988 3.9085732l0 0c0 3.052784 -2.474762 5.527561 -5.5275574 5.527561l0 0c-3.0527954 0 -5.5275574 -2.4747772 -5.5275574 -5.527561z" fill-rule="evenodd"/><path fill="#ffffff" d="m191.80708 138.47375l0 0c0 -3.0527954 2.4747772 -5.5275574 5.5275574 -5.5275574l0 0c1.4660034 0 2.8719635 0.58236694 3.9085846 1.618988c1.0366211 1.0366058 1.6189728 2.442566 1.6189728 3.9085693l0 0c0 3.0527802 -2.474762 5.5275574 -5.5275574 5.5275574l0 0c-3.0527802 0 -5.5275574 -2.4747772 -5.5275574 -5.5275574z" fill-rule="evenodd"/><path stroke="#000000" stroke-width="1.0" stroke-linejoin="round" stroke-linecap="butt" d="m191.80708 138.47375l0 0c0 -3.0527954 2.4747772 -5.5275574 5.5275574 -5.5275574l0 0c1.4660034 0 2.8719635 0.58236694 3.9085846 1.618988c1.0366211 1.0366058 1.6189728 2.442566 1.6189728 3.9085693l0 0c0 3.0527802 -2.474762 5.5275574 -5.5275574 5.5275574l0 0c-3.0527802 0 -5.5275574 -2.4747772 -5.5275574 -5.5275574z" fill-rule="evenodd"/><path fill="#ffffff" d="m327.9344 87.08662l0 0c0 -3.0527878 2.474762 -5.527565 5.5275574 -5.527565l0 0c1.4660034 0 2.8719482 0.58236694 3.9085693 1.618988c1.0366211 1.0366211 1.618988 2.4425735 1.618988 3.908577l0 0c0 3.0527878 -2.474762 5.5275574 -5.5275574 5.5275574l0 0c-3.0527954 0 -5.5275574 -2.4747696 -5.5275574 -5.5275574z" fill-rule="evenodd"/><path stroke="#000000" stroke-width="1.0" stroke-linejoin="round" stroke-linecap="butt" d="m327.9344 87.08662l0 0c0 -3.0527878 2.474762 -5.527565 5.5275574 -5.527565l0 0c1.4660034 0 2.8719482 0.58236694 3.9085693 1.618988c1.0366211 1.0366211 1.618988 2.4425735 1.618988 3.908577l0 0c0 3.0527878 -2.474762 5.5275574 -5.5275574 5.5275574l0 0c-3.0527954 0 -5.5275574 -2.4747696 -5.5275574 -5.5275574z" fill-rule="evenodd"/><path fill="#ffffff" d="m43.47769 181.09055l0 0c0 -3.0527802 2.4747696 -5.5275574 5.5275574 -5.5275574l0 0c1.4659996 0 2.8719559 0.58236694 3.9085732 1.618988c1.0366211 1.0366211 1.618988 2.4425812 1.618988 3.9085693l0 0c0 3.0527954 -2.4747734 5.5275574 -5.527561 5.5275574l0 0c-3.0527878 0 -5.5275574 -2.474762 -5.5275574 -5.5275574z" fill-rule="evenodd"/><path stroke="#000000" stroke-width="1.0" stroke-linejoin="round" stroke-linecap="butt" d="m43.47769 181.09055l0 0c0 -3.0527802 2.4747696 -5.5275574 5.5275574 -5.5275574l0 0c1.4659996 0 2.8719559 0.58236694 3.9085732 1.618988c1.0366211 1.0366211 1.618988 2.4425812 1.618988 3.9085693l0 0c0 3.0527954 -2.4747734 5.5275574 -5.527561 5.5275574l0 0c-3.0527878 0 -5.5275574 -2.474762 -5.5275574 -5.5275574z" fill-rule="evenodd"/><path fill="#ffffff" d="m190.39896 317.2756l0 0c0 -3.0527954 2.474762 -5.527588 5.5275574 -5.527588l0 0c1.4659882 0 2.8719482 0.58236694 3.9085693 1.618988c1.0366211 1.0366211 1.618988 2.4425964 1.618988 3.9085999l0 0c0 3.052765 -2.4747772 5.5275574 -5.5275574 5.5275574l0 0c-3.0527954 0 -5.5275574 -2.4747925 -5.5275574 -5.5275574z" fill-rule="evenodd"/><path stroke="#000000" stroke-width="1.0" stroke-linejoin="round" stroke-linecap="butt" d="m190.39896 317.2756l0 0c0 -3.0527954 2.474762 -5.527588 5.5275574 -5.527588l0 0c1.4659882 0 2.8719482 0.58236694 3.9085693 1.618988c1.0366211 1.0366211 1.618988 2.4425964 1.618988 3.9085999l0 0c0 3.052765 -2.4747772 5.5275574 -5.5275574 5.5275574l0 0c-3.0527954 0 -5.5275574 -2.4747925 -5.5275574 -5.5275574z" fill-rule="evenodd"/><path fill="#ffffff" d="m462.83466 157.32283l0 0c0 -3.0527802 2.474762 -5.5275574 5.5275574 -5.5275574l0 0c1.4660034 0 2.8719482 0.58236694 3.9085693 1.618988c1.0366211 1.0366211 1.618988 2.4425812 1.618988 3.9085693l0 0c0 3.0527954 -2.4747925 5.5275574 -5.5275574 5.5275574l0 0c-3.0527954 0 -5.5275574 -2.474762 -5.5275574 -5.5275574z" fill-rule="evenodd"/><path stroke="#000000" stroke-width="1.0" stroke-linejoin="round" stroke-linecap="butt" d="m462.83466 157.32283l0 0c0 -3.0527802 2.474762 -5.5275574 5.5275574 -5.5275574l0 0c1.4660034 0 2.8719482 0.58236694 3.9085693 1.618988c1.0366211 1.0366211 1.618988 2.4425812 1.618988 3.9085693l0 0c0 3.0527954 -2.4747925 5.5275574 -5.5275574 5.5275574l0 0c-3.0527954 0 -5.5275574 -2.474762 -5.5275574 -5.5275574z" fill-rule="evenodd"/><path fill="#ffffff" d="m299.85565 227.08209l0 0c0 -3.0527802 2.474762 -5.5275574 5.5275574 -5.5275574l0 0c1.4660034 0 2.8719482 0.58236694 3.9085693 1.618988c1.0366211 1.0366211 1.618988 2.4425812 1.618988 3.9085693l0 0c0 3.0527954 -2.4747925 5.5275726 -5.5275574 5.5275726l0 0c-3.0527954 0 -5.5275574 -2.4747772 -5.5275574 -5.5275726z" fill-rule="evenodd"/><path stroke="#000000" stroke-width="1.0" stroke-linejoin="round" stroke-linecap="butt" d="m299.85565 227.08209l0 0c0 -3.0527802 2.474762 -5.5275574 5.5275574 -5.5275574l0 0c1.4660034 0 2.8719482 0.58236694 3.9085693 1.618988c1.0366211 1.0366211 1.618988 2.4425812 1.618988 3.9085693l0 0c0 3.0527954 -2.4747925 5.5275726 -5.5275574 5.5275726l0 0c-3.0527954 0 -5.5275574 -2.4747772 -5.5275574 -5.5275726z" fill-rule="evenodd"/><path fill="#ffffff" d="m378.84778 131.76378l0 0c0 -3.0527802 2.474762 -5.5275574 5.5275574 -5.5275574l0 0c1.4660034 0 2.8719482 0.58236694 3.9085693 1.6189804c1.0366211 1.0366287 1.618988 2.4425735 1.618988 3.908577l0 0c0 3.0527802 -2.4747925 5.5275574 -5.5275574 5.5275574l0 0c-3.0527954 0 -5.5275574 -2.4747772 -5.5275574 -5.5275574z" fill-rule="evenodd"/><path stroke="#000000" stroke-width="1.0" stroke-linejoin="round" stroke-linecap="butt" d="m378.84778 131.76378l0 0c0 -3.0527802 2.474762 -5.5275574 5.5275574 -5.5275574l0 0c1.4660034 0 2.8719482 0.58236694 3.9085693 1.6189804c1.0366211 1.0366287 1.618988 2.4425735 1.618988 3.908577l0 0c0 3.0527802 -2.4747925 5.5275574 -5.5275574 5.5275574l0 0c-3.0527954 0 -5.5275574 -2.4747772 -5.5275574 -5.5275574z" fill-rule="evenodd"/><path fill="#ffffff" d="m294.77692 377.17584l0 0c0 -3.052765 2.474762 -5.5275574 5.5275574 -5.5275574l0 0c1.4659729 0 2.8719482 0.58236694 3.9085693 1.618988c1.0366211 1.0366211 1.618988 2.442566 1.618988 3.9085693l0 0c0 3.0527954 -2.4747925 5.5275574 -5.5275574 5.5275574l0 0c-3.0527954 0 -5.5275574 -2.474762 -5.5275574 -5.5275574z" fill-rule="evenodd"/><path stroke="#000000" stroke-width="1.0" stroke-linejoin="round" stroke-linecap="butt" d="m294.77692 377.17584l0 0c0 -3.052765 2.474762 -5.5275574 5.5275574 -5.5275574l0 0c1.4659729 0 2.8719482 0.58236694 3.9085693 1.618988c1.0366211 1.0366211 1.618988 2.442566 1.618988 3.9085693l0 0c0 3.0527954 -2.4747925 5.5275574 -5.5275574 5.5275574l0 0c-3.0527954 0 -5.5275574 -2.474762 -5.5275574 -5.5275574z" fill-rule="evenodd"/><path fill="#ffffff" d="m147.2231 233.52493l0 0c0 -3.0527802 2.4747772 -5.5275574 5.5275574 -5.5275574l0 0c1.4660034 0 2.8719635 0.58236694 3.9085693 1.618988c1.0366211 1.0366211 1.618988 2.442566 1.618988 3.9085693l0 0c0 3.0527954 -2.4747772 5.5275574 -5.5275574 5.5275574l0 0c-3.0527802 0 -5.5275574 -2.474762 -5.5275574 -5.5275574z" fill-rule="evenodd"/><path stroke="#000000" stroke-width="1.0" stroke-linejoin="round" stroke-linecap="butt" d="m147.2231 233.52493l0 0c0 -3.0527802 2.4747772 -5.5275574 5.5275574 -5.5275574l0 0c1.4660034 0 2.8719635 0.58236694 3.9085693 1.618988c1.0366211 1.0366211 1.618988 2.442566 1.618988 3.9085693l0 0c0 3.0527954 -2.4747772 5.5275574 -5.5275574 5.5275574l0 0c-3.0527802 0 -5.5275574 -2.474762 -5.5275574 -5.5275574z" fill-rule="evenodd"/><path fill="#ffffff" d="m331.6483 360.2047l0 0c0 -3.052765 2.4747925 -5.5275574 5.5275574 -5.5275574l0 0c1.4660034 0 2.8719788 0.58236694 3.9085999 1.618988c1.0365906 1.0366211 1.6189575 2.4425964 1.6189575 3.9085693l0 0c0 3.0527954 -2.474762 5.5275574 -5.5275574 5.5275574l0 0c-3.052765 0 -5.5275574 -2.474762 -5.5275574 -5.5275574z" fill-rule="evenodd"/><path stroke="#000000" stroke-width="1.0" stroke-linejoin="round" stroke-linecap="butt" d="m331.6483 360.2047l0 0c0 -3.052765 2.4747925 -5.5275574 5.5275574 -5.5275574l0 0c1.4660034 0 2.8719788 0.58236694 3.9085999 1.618988c1.0365906 1.0366211 1.6189575 2.4425964 1.6189575 3.9085693l0 0c0 3.0527954 -2.474762 5.5275574 -5.5275574 5.5275574l0 0c-3.052765 0 -5.5275574 -2.474762 -5.5275574 -5.5275574z" fill-rule="evenodd"/><path fill="#ffffff" d="m432.34647 377.17584l0 0c0 -3.052765 2.474762 -5.5275574 5.5275574 -5.5275574l0 0c1.4660034 0 2.8719482 0.58236694 3.9085693 1.618988c1.0366211 1.0366211 1.618988 2.442566 1.618988 3.9085693l0 0c0 3.0527954 -2.4747925 5.5275574 -5.5275574 5.5275574l0 0c-3.0527954 0 -5.5275574 -2.474762 -5.5275574 -5.5275574z" fill-rule="evenodd"/><path stroke="#000000" stroke-width="1.0" stroke-linejoin="round" stroke-linecap="butt" d="m432.34647 377.17584l0 0c0 -3.052765 2.474762 -5.5275574 5.5275574 -5.5275574l0 0c1.4660034 0 2.8719482 0.58236694 3.9085693 1.618988c1.0366211 1.0366211 1.618988 2.442566 1.618988 3.9085693l0 0c0 3.0527954 -2.4747925 5.5275574 -5.5275574 5.5275574l0 0c-3.0527954 0 -5.5275574 -2.474762 -5.5275574 -5.5275574z" fill-rule="evenodd"/><path fill="#ffffff" d="m374.81366 261.22046l0 0c0 -3.052765 2.474762 -5.527542 5.5275574 -5.527542l0 0c1.4660034 0 2.8719482 0.5823517 3.9085693 1.6189728c1.0366211 1.0366211 1.618988 2.4425964 1.618988 3.9085693l0 0c0 3.0527954 -2.4747925 5.5275574 -5.5275574 5.5275574l0 0c-3.0527954 0 -5.5275574 -2.474762 -5.5275574 -5.5275574z" fill-rule="evenodd"/><path stroke="#000000" stroke-width="1.0" stroke-linejoin="round" stroke-linecap="butt" d="m374.81366 261.22046l0 0c0 -3.052765 2.474762 -5.527542 5.5275574 -5.527542l0 0c1.4660034 0 2.8719482 0.5823517 3.9085693 1.6189728c1.0366211 1.0366211 1.618988 2.4425964 1.618988 3.9085693l0 0c0 3.0527954 -2.4747925 5.5275574 -5.5275574 5.5275574l0 0c-3.0527954 0 -5.5275574 -2.474762 -5.5275574 -5.5275574z" fill-rule="evenodd"/><path fill="#ffffff" d="m280.03674 261.22046l0 0c0 -3.052765 2.474762 -5.527542 5.5275574 -5.527542l0 0c1.4660034 0 2.8719482 0.5823517 3.9085693 1.6189728c1.0366211 1.0366211 1.618988 2.4425964 1.618988 3.9085693l0 0c0 3.0527954 -2.474762 5.5275574 -5.5275574 5.5275574l0 0c-3.0527954 0 -5.5275574 -2.474762 -5.5275574 -5.5275574z" fill-rule="evenodd"/><path stroke="#000000" stroke-width="1.0" stroke-linejoin="round" stroke-linecap="butt" d="m280.03674 261.22046l0 0c0 -3.052765 2.474762 -5.527542 5.5275574 -5.527542l0 0c1.4660034 0 2.8719482 0.5823517 3.9085693 1.6189728c1.0366211 1.0366211 1.618988 2.4425964 1.618988 3.9085693l0 0c0 3.0527954 -2.474762 5.5275574 -5.5275574 5.5275574l0 0c-3.0527954 0 -5.5275574 -2.474762 -5.5275574 -5.5275574z" fill-rule="evenodd"/><path fill="#ffffff" d="m111.82415 219.17192l0 0c0 -3.0527954 2.4747696 -5.5275574 5.5275574 -5.5275574l0 0c1.4659958 0 2.8719559 0.58236694 3.9085693 1.6189728c1.0366211 1.0366211 1.618988 2.4425812 1.618988 3.9085846l0 0c0 3.0527802 -2.4747696 5.5275574 -5.5275574 5.5275574l0 0c-3.0527878 0 -5.5275574 -2.4747772 -5.5275574 -5.5275574z" fill-rule="evenodd"/><path stroke="#000000" stroke-width="1.0" stroke-linejoin="round" stroke-linecap="butt" d="m111.82415 219.17192l0 0c0 -3.0527954 2.4747696 -5.5275574 5.5275574 -5.5275574l0 0c1.4659958 0 2.8719559 0.58236694 3.9085693 1.6189728c1.0366211 1.0366211 1.618988 2.4425812 1.618988 3.9085846l0 0c0 3.0527802 -2.4747696 5.5275574 -5.5275574 5.5275574l0 0c-3.0527878 0 -5.5275574 -2.4747772 -5.5275574 -5.5275574z" fill-rule="evenodd"/><path fill="#ffffff" d="m90.32021 272.2756l0 0c0 -3.0527954 2.4747696 -5.527588 5.5275574 -5.527588l0 0c1.4659958 0 2.8719559 0.58236694 3.9085693 1.618988c1.0366211 1.0366211 1.618988 2.4425964 1.618988 3.9085999l0 0c0 3.052765 -2.4747696 5.5275574 -5.5275574 5.5275574l0 0c-3.0527878 0 -5.5275574 -2.4747925 -5.5275574 -5.5275574z" fill-rule="evenodd"/><path stroke="#000000" stroke-width="1.0" stroke-linejoin="round" stroke-linecap="butt" d="m90.32021 272.2756l0 0c0 -3.0527954 2.4747696 -5.527588 5.5275574 -5.527588l0 0c1.4659958 0 2.8719559 0.58236694 3.9085693 1.618988c1.0366211 1.0366211 1.618988 2.4425964 1.618988 3.9085999l0 0c0 3.052765 -2.4747696 5.5275574 -5.5275574 5.5275574l0 0c-3.0527878 0 -5.5275574 -2.4747925 -5.5275574 -5.5275574z" fill-rule="evenodd"/><path fill="#ffffff" d="m84.16273 360.2047l0 0c0 -3.052765 2.4747772 -5.5275574 5.527565 -5.5275574l0 0c1.4659958 0 2.8719559 0.58236694 3.9085693 1.618988c1.0366211 1.0366211 1.618988 2.4425964 1.618988 3.9085693l0 0c0 3.0527954 -2.4747772 5.5275574 -5.5275574 5.5275574l0 0c-3.0527878 0 -5.527565 -2.474762 -5.527565 -5.5275574z" fill-rule="evenodd"/><path stroke="#000000" stroke-width="1.0" stroke-linejoin="round" stroke-linecap="butt" d="m84.16273 360.2047l0 0c0 -3.052765 2.4747772 -5.5275574 5.527565 -5.5275574l0 0c1.4659958 0 2.8719559 0.58236694 3.9085693 1.618988c1.0366211 1.0366211 1.618988 2.4425964 1.618988 3.9085693l0 0c0 3.0527954 -2.4747772 5.5275574 -5.5275574 5.5275574l0 0c-3.0527878 0 -5.527565 -2.474762 -5.527565 -5.5275574z" fill-rule="evenodd"/><path fill="#ffffff" d="m232.53806 87.085304l0 0c0 -3.0527878 2.4747772 -5.527565 5.5275574 -5.527565l0 0c1.4660034 0 2.8719635 0.58236694 3.9085846 1.618988c1.0366058 1.0366211 1.6189728 2.4425735 1.6189728 3.908577l0 0c0 3.0527878 -2.474762 5.5275574 -5.5275574 5.5275574l0 0c-3.0527802 0 -5.5275574 -2.4747696 -5.5275574 -5.5275574z" fill-rule="evenodd"/><path stroke="#000000" stroke-width="1.0" stroke-linejoin="round" stroke-linecap="butt" d="m232.53806 87.085304l0 0c0 -3.0527878 2.4747772 -5.527565 5.5275574 -5.527565l0 0c1.4660034 0 2.8719635 0.58236694 3.9085846 1.618988c1.0366058 1.0366211 1.6189728 2.4425735 1.6189728 3.908577l0 0c0 3.0527878 -2.474762 5.5275574 -5.5275574 5.5275574l0 0c-3.0527802 0 -5.5275574 -2.4747696 -5.5275574 -5.5275574z" fill-rule="evenodd"/><path fill="#ffffff" d="m212.72047 151.73232l0 0c0 3.0527954 2.4747772 5.5275574 5.5275574 5.5275574l0 0c1.4660034 0 2.8719635 -0.58236694 3.9085693 -1.6189728c1.0366211 -1.0366211 1.618988 -2.4425812 1.618988 -3.9085846l0 0c0 -3.0527802 -2.4747772 -5.5275574 -5.5275574 -5.5275574l0 0c-3.0527802 0 -5.5275574 2.4747772 -5.5275574 5.5275574z" fill-rule="evenodd"/><path stroke="#000000" stroke-width="1.0" stroke-linejoin="round" stroke-linecap="butt" d="m212.72047 151.73232l0 0c0 3.0527954 2.4747772 5.5275574 5.5275574 5.5275574l0 0c1.4660034 0 2.8719635 -0.58236694 3.9085693 -1.6189728c1.0366211 -1.0366211 1.618988 -2.4425812 1.618988 -3.9085846l0 0c0 -3.0527802 -2.4747772 -5.5275574 -5.5275574 -5.5275574l0 0c-3.0527802 0 -5.5275574 2.4747772 -5.5275574 5.5275574z" fill-rule="evenodd"/><path fill="#ffffff" d="m140.88977 154.37534l0 0c0 -3.0527954 2.474762 -5.5275726 5.5275574 -5.5275726l0 0c1.4659882 0 2.8719482 0.58236694 3.9085693 1.618988c1.0366211 1.0366211 1.618988 2.4425812 1.618988 3.9085846l0 0c0 3.0527802 -2.4747772 5.5275574 -5.5275574 5.5275574l0 0c-3.0527954 0 -5.5275574 -2.4747772 -5.5275574 -5.5275574z" fill-rule="evenodd"/><path stroke="#000000" stroke-width="1.0" stroke-linejoin="round" stroke-linecap="butt" d="m140.88977 154.37534l0 0c0 -3.0527954 2.474762 -5.5275726 5.5275574 -5.5275726l0 0c1.4659882 0 2.8719482 0.58236694 3.9085693 1.618988c1.0366211 1.0366211 1.618988 2.4425812 1.618988 3.9085846l0 0c0 3.0527802 -2.4747772 5.5275574 -5.5275574 5.5275574l0 0c-3.0527954 0 -5.5275574 -2.4747772 -5.5275574 -5.5275574z" fill-rule="evenodd"/><path fill="#ffffff" d="m221.48425 51.63517l0 0c0 -3.0527878 2.4747772 -5.5275574 5.5275574 -5.5275574l0 0c1.4660034 0 2.8719635 0.58236694 3.9085693 1.6189842c1.0366211 1.0366173 1.618988 2.4425735 1.618988 3.9085732l0 0c0 3.0527878 -2.4747772 5.527561 -5.5275574 5.527561l0 0c-3.0527802 0 -5.5275574 -2.4747734 -5.5275574 -5.527561z" fill-rule="evenodd"/><path stroke="#000000" stroke-width="1.0" stroke-linejoin="round" stroke-linecap="butt" d="m221.48425 51.63517l0 0c0 -3.0527878 2.4747772 -5.5275574 5.5275574 -5.5275574l0 0c1.4660034 0 2.8719635 0.58236694 3.9085693 1.6189842c1.0366211 1.0366173 1.618988 2.4425735 1.618988 3.9085732l0 0c0 3.0527878 -2.4747772 5.527561 -5.5275574 5.527561l0 0c-3.0527802 0 -5.5275574 -2.4747734 -5.5275574 -5.527561z" fill-rule="evenodd"/><path fill="#ffffff" d="m243.00787 51.63517l0 0c0 -3.0527878 2.4747772 -5.5275574 5.5275574 -5.5275574l0 0c1.4660034 0 2.8719635 0.58236694 3.9085693 1.6189842c1.0366211 1.0366173 1.618988 2.4425735 1.618988 3.9085732l0 0c0 3.0527878 -2.474762 5.527561 -5.5275574 5.527561l0 0c-3.0527802 0 -5.5275574 -2.4747734 -5.5275574 -5.527561z" fill-rule="evenodd"/><path stroke="#000000" stroke-width="1.0" stroke-linejoin="round" stroke-linecap="butt" d="m243.00787 51.63517l0 0c0 -3.0527878 2.4747772 -5.5275574 5.5275574 -5.5275574l0 0c1.4660034 0 2.8719635 0.58236694 3.9085693 1.6189842c1.0366211 1.0366173 1.618988 2.4425735 1.618988 3.9085732l0 0c0 3.0527878 -2.474762 5.527561 -5.5275574 5.527561l0 0c-3.0527802 0 -5.5275574 -2.4747734 -5.5275574 -5.527561z" fill-rule="evenodd"/><path fill="#ffffff" d="m313.6929 157.32283l0 0c0 -3.0527802 2.4747925 -5.5275574 5.5275574 -5.5275574l0 0c1.4660034 0 2.8719788 0.58236694 3.9085999 1.618988c1.0366211 1.0366211 1.6189575 2.4425812 1.6189575 3.9085693l0 0c0 3.0527954 -2.474762 5.5275574 -5.5275574 5.5275574l0 0c-3.052765 0 -5.5275574 -2.474762 -5.5275574 -5.5275574z" fill-rule="evenodd"/><path stroke="#000000" stroke-width="1.0" stroke-linejoin="round" stroke-linecap="butt" d="m313.6929 157.32283l0 0c0 -3.0527802 2.4747925 -5.5275574 5.5275574 -5.5275574l0 0c1.4660034 0 2.8719788 0.58236694 3.9085999 1.618988c1.0366211 1.0366211 1.6189575 2.4425812 1.6189575 3.9085693l0 0c0 3.0527954 -2.474762 5.5275574 -5.5275574 5.5275574l0 0c-3.052765 0 -5.5275574 -2.474762 -5.5275574 -5.5275574z" fill-rule="evenodd"/><path fill="#ffffff" d="m460.82678 317.27527l0 0c0 3.052765 2.474762 5.5275574 5.5275574 5.5275574l0 0c1.4660034 0 2.8719482 -0.58236694 3.9085693 -1.618988c1.0366211 -1.0366211 1.618988 -2.4425964 1.618988 -3.9085693l0 0c0 -3.0527954 -2.4747925 -5.5275574 -5.5275574 -5.5275574l0 0c-3.0527954 0 -5.5275574 2.474762 -5.5275574 5.5275574z" fill-rule="evenodd"/><path stroke="#000000" stroke-width="1.0" stroke-linejoin="round" stroke-linecap="butt" d="m460.82678 317.27527l0 0c0 3.052765 2.474762 5.5275574 5.5275574 5.5275574l0 0c1.4660034 0 2.8719482 -0.58236694 3.9085693 -1.618988c1.0366211 -1.0366211 1.618988 -2.4425964 1.618988 -3.9085693l0 0c0 -3.0527954 -2.4747925 -5.5275574 -5.5275574 -5.5275574l0 0c-3.0527954 0 -5.5275574 2.474762 -5.5275574 5.5275574z" fill-rule="evenodd"/><path fill="#ffffff" d="m480.15353 126.15748l0 0c0 -3.0527878 2.4747925 -5.5275574 5.5275574 -5.5275574l0 0c1.4660034 0 2.8719788 0.58236694 3.9085999 1.618988c1.0365906 1.0366135 1.6189575 2.4425735 1.6189575 3.9085693l0 0c0 3.0527878 -2.474762 5.527565 -5.5275574 5.527565l0 0c-3.052765 0 -5.5275574 -2.4747772 -5.5275574 -5.527565z" fill-rule="evenodd"/><path stroke="#000000" stroke-width="1.0" stroke-linejoin="round" stroke-linecap="butt" d="m480.15353 126.15748l0 0c0 -3.0527878 2.4747925 -5.5275574 5.5275574 -5.5275574l0 0c1.4660034 0 2.8719788 0.58236694 3.9085999 1.618988c1.0365906 1.0366135 1.6189575 2.4425735 1.6189575 3.9085693l0 0c0 3.0527878 -2.474762 5.527565 -5.5275574 5.527565l0 0c-3.052765 0 -5.5275574 -2.4747772 -5.5275574 -5.527565z" fill-rule="evenodd"/><path fill="#ffffff" d="m429.5013 102.08399l0 0c0 -3.0527878 2.474762 -5.527565 5.5275574 -5.527565l0 0c1.4660034 0 2.8719482 0.58236694 3.9085693 1.618988c1.0366211 1.0366211 1.618988 2.4425735 1.618988 3.908577l0 0c0 3.0527878 -2.474762 5.5275574 -5.5275574 5.5275574l0 0c-3.0527954 0 -5.5275574 -2.4747696 -5.5275574 -5.5275574z" fill-rule="evenodd"/><path stroke="#000000" stroke-width="1.0" stroke-linejoin="round" stroke-linecap="butt" d="m429.5013 102.08399l0 0c0 -3.0527878 2.474762 -5.527565 5.5275574 -5.527565l0 0c1.4660034 0 2.8719482 0.58236694 3.9085693 1.618988c1.0366211 1.0366211 1.618988 2.4425735 1.618988 3.908577l0 0c0 3.0527878 -2.474762 5.5275574 -5.5275574 5.5275574l0 0c-3.0527954 0 -5.5275574 -2.4747696 -5.5275574 -5.5275574z" fill-rule="evenodd"/><path fill="#ffffff" d="m163.23622 279.15485l0 0c0 -3.052765 2.4747772 -5.5275574 5.5275574 -5.5275574l0 0c1.4660034 0 2.8719635 0.58236694 3.9085693 1.618988c1.0366211 1.0366211 1.618988 2.442566 1.618988 3.9085693l0 0c0 3.0527954 -2.4747772 5.5275574 -5.5275574 5.5275574l0 0c-3.0527802 0 -5.5275574 -2.474762 -5.5275574 -5.5275574z" fill-rule="evenodd"/><path stroke="#000000" stroke-width="1.0" stroke-linejoin="round" stroke-linecap="butt" d="m163.23622 279.15485l0 0c0 -3.052765 2.4747772 -5.5275574 5.5275574 -5.5275574l0 0c1.4660034 0 2.8719635 0.58236694 3.9085693 1.618988c1.0366211 1.0366211 1.618988 2.442566 1.618988 3.9085693l0 0c0 3.0527954 -2.4747772 5.5275574 -5.5275574 5.5275574l0 0c-3.0527802 0 -5.5275574 -2.474762 -5.5275574 -5.5275574z" fill-rule="evenodd"/><path fill="#ffffff" d="m312.2467 327.4042l0 0c0 -3.0527954 2.4747925 -5.5275574 5.527588 -5.5275574l0 0c1.4659729 0 2.8719482 0.58236694 3.9085693 1.618988c1.0366211 1.0366211 1.618988 2.442566 1.618988 3.9085693l0 0c0 3.0527954 -2.4747925 5.5275574 -5.5275574 5.5275574l0 0c-3.0527954 0 -5.527588 -2.474762 -5.527588 -5.5275574z" fill-rule="evenodd"/><path stroke="#000000" stroke-width="1.0" stroke-linejoin="round" stroke-linecap="butt" d="m312.2467 327.4042l0 0c0 -3.0527954 2.4747925 -5.5275574 5.527588 -5.5275574l0 0c1.4659729 0 2.8719482 0.58236694 3.9085693 1.618988c1.0366211 1.0366211 1.618988 2.442566 1.618988 3.9085693l0 0c0 3.0527954 -2.4747925 5.5275574 -5.5275574 5.5275574l0 0c-3.0527954 0 -5.527588 -2.474762 -5.527588 -5.5275574z" fill-rule="evenodd"/></g></svg>