<svg version="1.1" viewBox="0.0 0.0 960.0 720.0" fill="none" stroke="none" stroke-linecap="square" stroke-miterlimit="10" xmlns:xlink="http://www.w3.org/1999/xlink" xmlns="http://www.w3.org/2000/svg"><clipPath id="p.0"><path d="m0 0l960.0 0l0 720.0l-960.0 0l0 -720.0z" clip-rule="nonzero"/></clipPath><g clip-path="url(#p.0)"><path fill="#000000" fill-opacity="0.0" d="m0 0l960.0 0l0 720.0l-960.0 0z" fill-rule="evenodd"/><path fill="#000000" fill-opacity="0.0" d="m439.31497 204.38058l0 91.49606" fill-rule="evenodd"/><path stroke="#000000" stroke-width="2.0" stroke-linejoin="round" stroke-linecap="butt" d="m439.31497 204.38058l0 91.49606" fill-rule="evenodd"/><path fill="#000000" fill-opacity="0.0" d="m508.063 346.28085l0 98.078735" fill-rule="evenodd"/><path stroke="#000000" stroke-width="2.0" stroke-linejoin="round" stroke-linecap="butt" d="m508.063 346.28085l0 98.078735" fill-rule="evenodd"/><path fill="#000000" fill-opacity="0.0" d="m557.02496 444.21127l-85.13388 0" fill-rule="evenodd"/><path stroke="#000000" stroke-width="2.0" stroke-linejoin="round" stroke-linecap="butt" d="m557.02496 444.21127l-85.13388 0" fill-rule="evenodd"/><path fill="#000000" fill-opacity="0.0" d="m521.68506 444.2126l-0.09448242 86.64569" fill-rule="evenodd"/><path stroke="#000000" stroke-width="2.0" stroke-linejoin="round" stroke-linecap="butt" d="m521.68506 444.2126l-0.09448242 86.64569" fill-rule="evenodd"/><path fill="#000000" fill-opacity="0.0" d="m557.02496 344.14435l0 185.60632" fill-rule="evenodd"/><path stroke="#000000" stroke-width="2.0" stroke-linejoin="round" stroke-linecap="butt" d="m557.02496 344.14435l0 185.60632" fill-rule="evenodd"/><path fill="#000000" fill-opacity="0.0" d="m659.2546 434.20734l0 92.25195" fill-rule="evenodd"/><path stroke="#000000" stroke-width="2.0" stroke-linejoin="round" stroke-linecap="butt" d="m659.2546 434.20734l0 92.25195" fill-rule="evenodd"/><path fill="#000000" fill-opacity="0.0" d="m754.03284 434.99475l-197.00787 -0.78741455" fill-rule="evenodd"/><path stroke="#000000" stroke-width="2.0" stroke-linejoin="round" stroke-linecap="butt" d="m754.03284 434.99475l-197.00787 -0.78741455" fill-rule="evenodd"/><path fill="#000000" fill-opacity="0.0" d="m601.6273 344.6273l0 89.51181" fill-rule="evenodd"/><path stroke="#000000" stroke-width="2.0" stroke-linejoin="round" stroke-linecap="butt" d="m601.6273 344.6273l0 89.51181" fill-rule="evenodd"/><path fill="#000000" fill-opacity="0.0" d="m656.4252 122.314964l0 121.29133" fill-rule="evenodd"/><path stroke="#000000" stroke-width="2.0" stroke-linejoin="round" stroke-linecap="butt" d="m656.4252 122.314964l0 121.29133" fill-rule="evenodd"/><path fill="#000000" fill-opacity="0.0" d="m752.0656 243.35695l-112.72443 0" fill-rule="evenodd"/><path stroke="#000000" stroke-width="2.0" stroke-linejoin="round" stroke-linecap="butt" d="m752.0656 243.35695l-112.72443 0" fill-rule="evenodd"/><path fill="#000000" fill-opacity="0.0" d="m689.2546 242.47507l0 102.14172" fill-rule="evenodd"/><path stroke="#000000" stroke-width="2.0" stroke-linejoin="round" stroke-linecap="butt" d="m689.2546 242.47507l0 102.14172" fill-rule="evenodd"/><path fill="#000000" fill-opacity="0.0" d="m639.3438 121.48819l0 223.18109" fill-rule="evenodd"/><path stroke="#000000" stroke-width="2.0" stroke-linejoin="round" stroke-linecap="butt" d="m639.3438 121.48819l0 223.18109" fill-rule="evenodd"/><path fill="#000000" fill-opacity="0.0" d="m638.09973 249.1483l-167.02362 0" fill-rule="evenodd"/><path stroke="#000000" stroke-width="2.0" stroke-linejoin="round" stroke-linecap="butt" d="m638.09973 249.1483l-167.02362 0" fill-rule="evenodd"/><path fill="#000000" fill-opacity="0.0" d="m540.2848 249.14961l0 95.464554" fill-rule="evenodd"/><path stroke="#000000" stroke-width="2.0" stroke-linejoin="round" stroke-linecap="butt" d="m540.2848 249.14961l0 95.464554" fill-rule="evenodd"/><path fill="#000000" fill-opacity="0.0" d="m751.23883 344.67978l-280.97635 0" fill-rule="evenodd"/><path stroke="#000000" stroke-width="3.0" stroke-linejoin="round" stroke-linecap="butt" d="m751.23883 344.67978l-280.97635 0" fill-rule="evenodd"/><path fill="#000000" fill-opacity="0.0" d="m555.0551 119.00787l0 130.61417" fill-rule="evenodd"/><path stroke="#000000" stroke-width="2.0" stroke-linejoin="round" stroke-linecap="butt" d="m555.0551 119.00787l0 130.61417" fill-rule="evenodd"/><path fill="#000000" fill-opacity="0.0" d="m448.77036 117.86089l0.5354309 86.58268" fill-rule="evenodd"/><path stroke="#000000" stroke-width="2.0" stroke-linejoin="round" stroke-linecap="butt" d="m448.77036 117.86089l0.5354309 86.58268" fill-rule="evenodd"/><path fill="#000000" fill-opacity="0.0" d="m470.2467 204.41077l-50.42517 0" fill-rule="evenodd"/><path stroke="#000000" stroke-width="2.0" stroke-linejoin="round" stroke-linecap="butt" d="m470.2467 204.41077l-50.42517 0" fill-rule="evenodd"/><path fill="#000000" fill-opacity="0.0" d="m419.87402 117.32546l-0.5984192 179.59055" fill-rule="evenodd"/><path stroke="#000000" stroke-width="2.0" stroke-linejoin="round" stroke-linecap="butt" d="m419.87402 117.32546l-0.5984192 179.59055" fill-rule="evenodd"/><path fill="#000000" fill-opacity="0.0" d="m367.65616 246.88452l0 49.795258" fill-rule="evenodd"/><path stroke="#000000" stroke-width="2.0" stroke-linejoin="round" stroke-linecap="butt" d="m367.65616 246.88452l0 49.795258" fill-rule="evenodd"/><path fill="#000000" fill-opacity="0.0" d="m419.8727 246.0643l-197.00789 -0.7873993" fill-rule="evenodd"/><path stroke="#000000" stroke-width="2.0" stroke-linejoin="round" stroke-linecap="butt" d="m419.8727 246.0643l-197.00789 -0.7873993" fill-rule="evenodd"/><path fill="#000000" fill-opacity="0.0" d="m296.3071 120.661415l0 123.84252" fill-rule="evenodd"/><path stroke="#000000" stroke-width="2.0" stroke-linejoin="round" stroke-linecap="butt" d="m296.3071 120.661415l0 123.84252" fill-rule="evenodd"/><path fill="#000000" fill-opacity="0.0" d="m417.32285 396.91733l0 131.99997" fill-rule="evenodd"/><path stroke="#000000" stroke-width="2.0" stroke-linejoin="round" stroke-linecap="butt" d="m417.32285 396.91733l0 131.99997" fill-rule="evenodd"/><path fill="#000000" fill-opacity="0.0" d="m374.08398 297.51968l0 99.1181" fill-rule="evenodd"/><path stroke="#000000" stroke-width="2.0" stroke-linejoin="round" stroke-linecap="butt" d="m374.08398 297.51968l0 99.1181" fill-rule="evenodd"/><path fill="#000000" fill-opacity="0.0" d="m468.5958 397.1076l-129.88977 0" fill-rule="evenodd"/><path stroke="#000000" stroke-width="2.0" stroke-linejoin="round" stroke-linecap="butt" d="m468.5958 397.1076l-129.88977 0" fill-rule="evenodd"/><path fill="#000000" fill-opacity="0.0" d="m310.7034 389.85828l0 138.2362" fill-rule="evenodd"/><path stroke="#000000" stroke-width="2.0" stroke-linejoin="round" stroke-linecap="butt" d="m310.7034 389.85828l0 138.2362" fill-rule="evenodd"/><path fill="#000000" fill-opacity="0.0" d="m338.68372 389.63123l-107.18109 -0.06298828" fill-rule="evenodd"/><path stroke="#000000" stroke-width="2.0" stroke-linejoin="round" stroke-linecap="butt" d="m338.68372 389.63123l-107.18109 -0.06298828" fill-rule="evenodd"/><path fill="#000000" fill-opacity="0.0" d="m338.68372 297.33597l0 232.40945" fill-rule="evenodd"/><path stroke="#000000" stroke-width="2.0" stroke-linejoin="round" stroke-linecap="butt" d="m338.68372 297.33597l0 232.40945" fill-rule="evenodd"/><path fill="#000000" fill-opacity="0.0" d="m260.0 296.34384l0 92.91339" fill-rule="evenodd"/><path stroke="#000000" stroke-width="2.0" stroke-linejoin="round" stroke-linecap="butt" d="m260.0 296.34384l0 92.91339" fill-rule="evenodd"/><path fill="#ffffff" d="m254.67455 360.0l0 0c0 -3.0527954 2.4747772 -5.5275574 5.527542 -5.5275574l0 0c1.4660034 0 2.8719788 0.58236694 3.9085999 1.618988c1.0365906 1.0366211 1.6189575 2.442566 1.6189575 3.9085693l0 0c0 3.0527954 -2.474762 5.5275574 -5.5275574 5.5275574l0 0c-3.052765 0 -5.527542 -2.474762 -5.527542 -5.5275574z" fill-rule="evenodd"/><path stroke="#000000" stroke-width="1.0" stroke-linejoin="round" stroke-linecap="butt" d="m254.67455 360.0l0 0c0 -3.0527954 2.4747772 -5.5275574 5.527542 -5.5275574l0 0c1.4660034 0 2.8719788 0.58236694 3.9085999 1.618988c1.0365906 1.0366211 1.6189575 2.442566 1.6189575 3.9085693l0 0c0 3.0527954 -2.474762 5.5275574 -5.5275574 5.5275574l0 0c-3.052765 0 -5.527542 -2.474762 -5.527542 -5.5275574z" fill-rule="evenodd"/><path fill="#000000" fill-opacity="0.0" d="m470.2467 297.33466l-248.91338 0.5354309" fill-rule="evenodd"/><path stroke="#000000" stroke-width="3.0" stroke-linejoin="round" stroke-linecap="butt" d="m470.2467 297.33466l-248.91338 0.5354309" fill-rule="evenodd"/><path fill="#000000" fill-opacity="0.0" d="m469.4908 119.83465l0 409.92126" fill-rule="evenodd"/><path stroke="#000000" stroke-width="3.0" stroke-linejoin="round" stroke-linecap="butt" d="m469.4908 119.83465l0 409.92126" fill-rule="evenodd"/><path fill="#ffffff" d="m289.3386 204.41208l0 0c0 -3.0527954 2.474762 -5.5275574 5.5275574 -5.5275574l0 0c1.4660034 0 2.8719482 0.5823517 3.9085693 1.6189728c1.0366211 1.0366211 1.618988 2.4425812 1.618988 3.9085846l0 0c0 3.0527802 -2.4747925 5.5275574 -5.5275574 5.5275574l0 0c-3.0527954 0 -5.5275574 -2.4747772 -5.5275574 -5.5275574z" fill-rule="evenodd"/><path stroke="#000000" stroke-width="1.0" stroke-linejoin="round" stroke-linecap="butt" d="m289.3386 204.41208l0 0c0 -3.0527954 2.474762 -5.5275574 5.5275574 -5.5275574l0 0c1.4660034 0 2.8719482 0.5823517 3.9085693 1.6189728c1.0366211 1.0366211 1.618988 2.4425812 1.618988 3.9085846l0 0c0 3.0527802 -2.4747925 5.5275574 -5.5275574 5.5275574l0 0c-3.0527954 0 -5.5275574 -2.4747772 -5.5275574 -5.5275574z" fill-rule="evenodd"/><path fill="#ffffff" d="m305.16928 245.67192l0 0c0 -3.0527954 2.4747925 -5.5275574 5.5275574 -5.5275574l0 0c1.4660034 0 2.8719788 0.58236694 3.9085999 1.6189728c1.0365906 1.0366211 1.6189575 2.4425812 1.6189575 3.9085846l0 0c0 3.0527802 -2.474762 5.5275574 -5.5275574 5.5275574l0 0c-3.052765 0 -5.5275574 -2.4747772 -5.5275574 -5.5275574z" fill-rule="evenodd"/><path stroke="#000000" stroke-width="1.0" stroke-linejoin="round" stroke-linecap="butt" d="m305.16928 245.67192l0 0c0 -3.0527954 2.4747925 -5.5275574 5.5275574 -5.5275574l0 0c1.4660034 0 2.8719788 0.58236694 3.9085999 1.6189728c1.0365906 1.0366211 1.6189575 2.4425812 1.6189575 3.9085846l0 0c0 3.0527802 -2.474762 5.5275574 -5.5275574 5.5275574l0 0c-3.052765 0 -5.5275574 -2.4747772 -5.5275574 -5.5275574z" fill-rule="evenodd"/><path fill="#ffffff" d="m633.8163 180.01575l0 0c0 -3.0527802 2.4747314 -5.5275574 5.527527 -5.5275574l0 0c1.4660034 0 2.8719482 0.58236694 3.9085693 1.618988c1.0366211 1.0366211 1.6190186 2.442566 1.6190186 3.9085693l0 0c0 3.0527802 -2.4747925 5.5275574 -5.527588 5.5275574l0 0c-3.0527954 0 -5.527527 -2.4747772 -5.527527 -5.5275574z" fill-rule="evenodd"/><path stroke="#000000" stroke-width="1.0" stroke-linejoin="round" stroke-linecap="butt" d="m633.8163 180.01575l0 0c0 -3.0527802 2.4747314 -5.5275574 5.527527 -5.5275574l0 0c1.4660034 0 2.8719482 0.58236694 3.9085693 1.618988c1.0366211 1.0366211 1.6190186 2.442566 1.6190186 3.9085693l0 0c0 3.0527802 -2.4747925 5.5275574 -5.527588 5.5275574l0 0c-3.0527954 0 -5.527527 -2.4747772 -5.527527 -5.5275574z" fill-rule="evenodd"/><path fill="#ffffff" d="m413.1404 255.79921l0 0c0 -3.0527802 2.4747925 -5.5275574 5.5275574 -5.5275574l0 0c1.4660034 0 2.8719788 0.58236694 3.9085999 1.618988c1.0365906 1.0366211 1.6189575 2.442566 1.6189575 3.9085693l0 0c0 3.0527802 -2.474762 5.5275726 -5.5275574 5.5275726l0 0c-3.052765 0 -5.5275574 -2.4747925 -5.5275574 -5.5275726z" fill-rule="evenodd"/><path stroke="#000000" stroke-width="1.0" stroke-linejoin="round" stroke-linecap="butt" d="m413.1404 255.79921l0 0c0 -3.0527802 2.4747925 -5.5275574 5.5275574 -5.5275574l0 0c1.4660034 0 2.8719788 0.58236694 3.9085999 1.618988c1.0365906 1.0366211 1.6189575 2.442566 1.6189575 3.9085693l0 0c0 3.0527802 -2.474762 5.5275726 -5.5275574 5.5275726l0 0c-3.052765 0 -5.5275574 -2.4747925 -5.5275574 -5.5275726z" fill-rule="evenodd"/><path fill="#ffffff" d="m549.2677 204.41208l0 0c0 -3.0527954 2.4747925 -5.5275574 5.527588 -5.5275574l0 0c1.4660034 0 2.8719482 0.5823517 3.9085693 1.6189728c1.0366211 1.0366211 1.6189575 2.4425812 1.6189575 3.9085846l0 0c0 3.0527802 -2.4747314 5.5275574 -5.527527 5.5275574l0 0c-3.0527954 0 -5.527588 -2.4747772 -5.527588 -5.5275574z" fill-rule="evenodd"/><path stroke="#000000" stroke-width="1.0" stroke-linejoin="round" stroke-linecap="butt" d="m549.2677 204.41208l0 0c0 -3.0527954 2.4747925 -5.5275574 5.527588 -5.5275574l0 0c1.4660034 0 2.8719482 0.5823517 3.9085693 1.6189728c1.0366211 1.0366211 1.6189575 2.4425812 1.6189575 3.9085846l0 0c0 3.0527802 -2.4747314 5.5275574 -5.527527 5.5275574l0 0c-3.0527954 0 -5.527588 -2.4747772 -5.527588 -5.5275574z" fill-rule="evenodd"/><path fill="#ffffff" d="m264.81104 298.41602l0 0c0 -3.0527954 2.474762 -5.5275574 5.5275574 -5.5275574l0 0c1.4660034 0 2.8719482 0.58236694 3.9085693 1.618988c1.0366211 1.0366211 1.618988 2.442566 1.618988 3.9085693l0 0c0 3.0527954 -2.4747925 5.5275574 -5.5275574 5.5275574l0 0c-3.0527954 0 -5.5275574 -2.474762 -5.5275574 -5.5275574z" fill-rule="evenodd"/><path stroke="#000000" stroke-width="1.0" stroke-linejoin="round" stroke-linecap="butt" d="m264.81104 298.41602l0 0c0 -3.0527954 2.474762 -5.5275574 5.5275574 -5.5275574l0 0c1.4660034 0 2.8719482 0.58236694 3.9085693 1.618988c1.0366211 1.0366211 1.618988 2.442566 1.618988 3.9085693l0 0c0 3.0527954 -2.4747925 5.5275574 -5.5275574 5.5275574l0 0c-3.0527954 0 -5.5275574 -2.474762 -5.5275574 -5.5275574z" fill-rule="evenodd"/><path fill="#ffffff" d="m411.73227 434.60104l0 0c0 -3.0527954 2.4747925 -5.5275574 5.527588 -5.5275574l0 0c1.4659729 0 2.8719482 0.58236694 3.9085693 1.618988c1.0366211 1.0366211 1.618988 2.442566 1.618988 3.9085693l0 0c0 3.0527954 -2.4747925 5.5275574 -5.5275574 5.5275574l0 0c-3.0527954 0 -5.527588 -2.474762 -5.527588 -5.5275574z" fill-rule="evenodd"/><path stroke="#000000" stroke-width="1.0" stroke-linejoin="round" stroke-linecap="butt" d="m411.73227 434.60104l0 0c0 -3.0527954 2.4747925 -5.5275574 5.527588 -5.5275574l0 0c1.4659729 0 2.8719482 0.58236694 3.9085693 1.618988c1.0366211 1.0366211 1.618988 2.442566 1.618988 3.9085693l0 0c0 3.0527954 -2.4747925 5.5275574 -5.5275574 5.5275574l0 0c-3.0527954 0 -5.527588 -2.474762 -5.527588 -5.5275574z" fill-rule="evenodd"/><path fill="#ffffff" d="m684.16797 274.6483l0 0c0 -3.052765 2.4747925 -5.5275574 5.527588 -5.5275574l0 0c1.4660034 0 2.8719482 0.58236694 3.9085693 1.618988c1.0366211 1.0366211 1.6189575 2.442566 1.6189575 3.9085693l0 0c0 3.0527954 -2.4747314 5.5275574 -5.527527 5.5275574l0 0c-3.0527954 0 -5.527588 -2.474762 -5.527588 -5.5275574z" fill-rule="evenodd"/><path stroke="#000000" stroke-width="1.0" stroke-linejoin="round" stroke-linecap="butt" d="m684.16797 274.6483l0 0c0 -3.052765 2.4747925 -5.5275574 5.527588 -5.5275574l0 0c1.4660034 0 2.8719482 0.58236694 3.9085693 1.618988c1.0366211 1.0366211 1.6189575 2.442566 1.6189575 3.9085693l0 0c0 3.0527954 -2.4747314 5.5275574 -5.527527 5.5275574l0 0c-3.0527954 0 -5.527588 -2.474762 -5.527588 -5.5275574z" fill-rule="evenodd"/><path fill="#ffffff" d="m521.18896 344.40756l0 0c0 -3.0527954 2.4747925 -5.5275574 5.527588 -5.5275574l0 0c1.4660034 0 2.8719482 0.58236694 3.9085693 1.618988c1.0366211 1.0366211 1.6189575 2.442566 1.6189575 3.9085693l0 0c0 3.0527954 -2.4747314 5.5275574 -5.527527 5.5275574l0 0c-3.0527954 0 -5.527588 -2.474762 -5.527588 -5.5275574z" fill-rule="evenodd"/><path stroke="#000000" stroke-width="1.0" stroke-linejoin="round" stroke-linecap="butt" d="m521.18896 344.40756l0 0c0 -3.0527954 2.4747925 -5.5275574 5.527588 -5.5275574l0 0c1.4660034 0 2.8719482 0.58236694 3.9085693 1.618988c1.0366211 1.0366211 1.6189575 2.442566 1.6189575 3.9085693l0 0c0 3.0527954 -2.4747314 5.5275574 -5.527527 5.5275574l0 0c-3.0527954 0 -5.527588 -2.474762 -5.527588 -5.5275574z" fill-rule="evenodd"/><path fill="#ffffff" d="m600.1811 249.08923l0 0c0 -3.0527802 2.4747925 -5.5275574 5.527588 -5.5275574l0 0c1.4660034 0 2.8719482 0.58236694 3.9085693 1.618988c1.0366211 1.0366211 1.6189575 2.4425812 1.6189575 3.9085693l0 0c0 3.0527954 -2.4747314 5.5275574 -5.527527 5.5275574l0 0c-3.0527954 0 -5.527588 -2.474762 -5.527588 -5.5275574z" fill-rule="evenodd"/><path stroke="#000000" stroke-width="1.0" stroke-linejoin="round" stroke-linecap="butt" d="m600.1811 249.08923l0 0c0 -3.0527802 2.4747925 -5.5275574 5.527588 -5.5275574l0 0c1.4660034 0 2.8719482 0.58236694 3.9085693 1.618988c1.0366211 1.0366211 1.6189575 2.4425812 1.6189575 3.9085693l0 0c0 3.0527954 -2.4747314 5.5275574 -5.527527 5.5275574l0 0c-3.0527954 0 -5.527588 -2.474762 -5.527588 -5.5275574z" fill-rule="evenodd"/><path fill="#ffffff" d="m516.1102 494.5013l0 0c0 -3.0527954 2.4747925 -5.5275574 5.527588 -5.5275574l0 0c1.4660034 0 2.8719482 0.58236694 3.9085693 1.618988c1.0366211 1.0366211 1.6189575 2.442566 1.6189575 3.9085693l0 0c0 3.0527954 -2.4747925 5.5275574 -5.527527 5.5275574l0 0c-3.0527954 0 -5.527588 -2.474762 -5.527588 -5.5275574z" fill-rule="evenodd"/><path stroke="#000000" stroke-width="1.0" stroke-linejoin="round" stroke-linecap="butt" d="m516.1102 494.5013l0 0c0 -3.0527954 2.4747925 -5.5275574 5.527588 -5.5275574l0 0c1.4660034 0 2.8719482 0.58236694 3.9085693 1.618988c1.0366211 1.0366211 1.6189575 2.442566 1.6189575 3.9085693l0 0c0 3.0527954 -2.4747925 5.5275574 -5.527527 5.5275574l0 0c-3.0527954 0 -5.527588 -2.474762 -5.527588 -5.5275574z" fill-rule="evenodd"/><path fill="#ffffff" d="m368.55643 350.8504l0 0c0 -3.0527954 2.474762 -5.5275574 5.5275574 -5.5275574l0 0c1.4660034 0 2.8719482 0.58236694 3.9085693 1.618988c1.0366211 1.0365906 1.618988 2.442566 1.618988 3.9085693l0 0c0 3.052765 -2.474762 5.5275574 -5.5275574 5.5275574l0 0c-3.0527954 0 -5.5275574 -2.4747925 -5.5275574 -5.5275574z" fill-rule="evenodd"/><path stroke="#000000" stroke-width="1.0" stroke-linejoin="round" stroke-linecap="butt" d="m368.55643 350.8504l0 0c0 -3.0527954 2.474762 -5.5275574 5.5275574 -5.5275574l0 0c1.4660034 0 2.8719482 0.58236694 3.9085693 1.618988c1.0366211 1.0365906 1.618988 2.442566 1.618988 3.9085693l0 0c0 3.052765 -2.474762 5.5275574 -5.5275574 5.5275574l0 0c-3.0527954 0 -5.5275574 -2.4747925 -5.5275574 -5.5275574z" fill-rule="evenodd"/><path fill="#ffffff" d="m552.9816 477.53018l0 0c0 -3.0527954 2.4747925 -5.5275574 5.527588 -5.5275574l0 0c1.4659424 0 2.8719482 0.58236694 3.9085693 1.618988c1.0366211 1.0366211 1.6189575 2.442566 1.6189575 3.9085693l0 0c0 3.0527954 -2.4747925 5.5275574 -5.527527 5.5275574l0 0c-3.0527954 0 -5.527588 -2.474762 -5.527588 -5.5275574z" fill-rule="evenodd"/><path stroke="#000000" stroke-width="1.0" stroke-linejoin="round" stroke-linecap="butt" d="m552.9816 477.53018l0 0c0 -3.0527954 2.4747925 -5.5275574 5.527588 -5.5275574l0 0c1.4659424 0 2.8719482 0.58236694 3.9085693 1.618988c1.0366211 1.0366211 1.6189575 2.442566 1.6189575 3.9085693l0 0c0 3.0527954 -2.4747925 5.5275574 -5.527527 5.5275574l0 0c-3.0527954 0 -5.527588 -2.474762 -5.527588 -5.5275574z" fill-rule="evenodd"/><path fill="#ffffff" d="m653.6798 494.5013l0 0c0 -3.0527954 2.4747314 -5.5275574 5.527527 -5.5275574l0 0c1.4660034 0 2.8719482 0.58236694 3.9085693 1.618988c1.0366211 1.0366211 1.6190186 2.442566 1.6190186 3.9085693l0 0c0 3.0527954 -2.4747925 5.5275574 -5.527588 5.5275574l0 0c-3.0527954 0 -5.527527 -2.474762 -5.527527 -5.5275574z" fill-rule="evenodd"/><path stroke="#000000" stroke-width="1.0" stroke-linejoin="round" stroke-linecap="butt" d="m653.6798 494.5013l0 0c0 -3.0527954 2.4747314 -5.5275574 5.527527 -5.5275574l0 0c1.4660034 0 2.8719482 0.58236694 3.9085693 1.618988c1.0366211 1.0366211 1.6190186 2.442566 1.6190186 3.9085693l0 0c0 3.0527954 -2.4747925 5.5275574 -5.527588 5.5275574l0 0c-3.0527954 0 -5.527527 -2.474762 -5.527527 -5.5275574z" fill-rule="evenodd"/><path fill="#ffffff" d="m596.147 378.54593l0 0c0 -3.0527954 2.4747925 -5.5275574 5.527588 -5.5275574l0 0c1.4660034 0 2.8719482 0.58236694 3.9085693 1.618988c1.0366211 1.0366211 1.6189575 2.442566 1.6189575 3.9085693l0 0c0 3.0527954 -2.4747314 5.5275574 -5.527527 5.5275574l0 0c-3.0527954 0 -5.527588 -2.474762 -5.527588 -5.5275574z" fill-rule="evenodd"/><path stroke="#000000" stroke-width="1.0" stroke-linejoin="round" stroke-linecap="butt" d="m596.147 378.54593l0 0c0 -3.0527954 2.4747925 -5.5275574 5.527588 -5.5275574l0 0c1.4660034 0 2.8719482 0.58236694 3.9085693 1.618988c1.0366211 1.0366211 1.6189575 2.442566 1.6189575 3.9085693l0 0c0 3.0527954 -2.4747314 5.5275574 -5.527527 5.5275574l0 0c-3.0527954 0 -5.527588 -2.474762 -5.527588 -5.5275574z" fill-rule="evenodd"/><path fill="#ffffff" d="m501.3701 378.54593l0 0c0 -3.0527954 2.474762 -5.5275574 5.5275574 -5.5275574l0 0c1.4660034 0 2.8719482 0.58236694 3.9085693 1.618988c1.0366211 1.0366211 1.6189575 2.442566 1.6189575 3.9085693l0 0c0 3.0527954 -2.4747314 5.5275574 -5.527527 5.5275574l0 0c-3.0527954 0 -5.5275574 -2.474762 -5.5275574 -5.5275574z" fill-rule="evenodd"/><path stroke="#000000" stroke-width="1.0" stroke-linejoin="round" stroke-linecap="butt" d="m501.3701 378.54593l0 0c0 -3.0527954 2.474762 -5.5275574 5.5275574 -5.5275574l0 0c1.4660034 0 2.8719482 0.58236694 3.9085693 1.618988c1.0366211 1.0366211 1.6189575 2.442566 1.6189575 3.9085693l0 0c0 3.0527954 -2.4747314 5.5275574 -5.527527 5.5275574l0 0c-3.0527954 0 -5.5275574 -2.474762 -5.5275574 -5.5275574z" fill-rule="evenodd"/><path fill="#ffffff" d="m333.15747 336.49738l0 0c0 -3.0527954 2.4747925 -5.5275574 5.5275574 -5.5275574l0 0c1.4660034 0 2.8719788 0.58236694 3.9085999 1.618988c1.0365906 1.0366211 1.6189575 2.442566 1.6189575 3.9085693l0 0c0 3.0527954 -2.474762 5.5275574 -5.5275574 5.5275574l0 0c-3.052765 0 -5.5275574 -2.474762 -5.5275574 -5.5275574z" fill-rule="evenodd"/><path stroke="#000000" stroke-width="1.0" stroke-linejoin="round" stroke-linecap="butt" d="m333.15747 336.49738l0 0c0 -3.0527954 2.4747925 -5.5275574 5.5275574 -5.5275574l0 0c1.4660034 0 2.8719788 0.58236694 3.9085999 1.618988c1.0365906 1.0366211 1.6189575 2.442566 1.6189575 3.9085693l0 0c0 3.0527954 -2.474762 5.5275574 -5.5275574 5.5275574l0 0c-3.052765 0 -5.5275574 -2.474762 -5.5275574 -5.5275574z" fill-rule="evenodd"/><path fill="#ffffff" d="m311.65353 389.60104l0 0c0 -3.0527954 2.4747925 -5.5275574 5.5275574 -5.5275574l0 0c1.4660034 0 2.8719788 0.58236694 3.9085999 1.618988c1.0365906 1.0366211 1.6189575 2.442566 1.6189575 3.9085693l0 0c0 3.0527954 -2.474762 5.5275574 -5.5275574 5.5275574l0 0c-3.052765 0 -5.5275574 -2.474762 -5.5275574 -5.5275574z" fill-rule="evenodd"/><path stroke="#000000" stroke-width="1.0" stroke-linejoin="round" stroke-linecap="butt" d="m311.65353 389.60104l0 0c0 -3.0527954 2.4747925 -5.5275574 5.5275574 -5.5275574l0 0c1.4660034 0 2.8719788 0.58236694 3.9085999 1.618988c1.0365906 1.0366211 1.6189575 2.442566 1.6189575 3.9085693l0 0c0 3.0527954 -2.474762 5.5275574 -5.5275574 5.5275574l0 0c-3.052765 0 -5.5275574 -2.474762 -5.5275574 -5.5275574z" fill-rule="evenodd"/><path fill="#ffffff" d="m305.49606 477.53018l0 0c0 -3.0527954 2.474762 -5.5275574 5.5275574 -5.5275574l0 0c1.4660034 0 2.8719482 0.58236694 3.9085693 1.618988c1.0366211 1.0366211 1.618988 2.442566 1.618988 3.9085693l0 0c0 3.0527954 -2.474762 5.5275574 -5.5275574 5.5275574l0 0c-3.0527954 0 -5.5275574 -2.474762 -5.5275574 -5.5275574z" fill-rule="evenodd"/><path stroke="#000000" stroke-width="1.0" stroke-linejoin="round" stroke-linecap="butt" d="m305.49606 477.53018l0 0c0 -3.0527954 2.474762 -5.5275574 5.5275574 -5.5275574l0 0c1.4660034 0 2.8719482 0.58236694 3.9085693 1.618988c1.0366211 1.0366211 1.618988 2.442566 1.618988 3.9085693l0 0c0 3.0527954 -2.474762 5.5275574 -5.5275574 5.5275574l0 0c-3.0527954 0 -5.5275574 -2.474762 -5.5275574 -5.5275574z" fill-rule="evenodd"/><path fill="#ffffff" d="m453.8714 204.41077l0 0c0 -3.0527954 2.474762 -5.5275574 5.5275574 -5.5275574l0 0c1.4660034 0 2.8719482 0.5823517 3.9085693 1.6189728c1.0366211 1.0366211 1.618988 2.4425812 1.618988 3.9085846l0 0c0 3.0527802 -2.474762 5.5275574 -5.5275574 5.5275574l0 0c-3.0527954 0 -5.5275574 -2.4747772 -5.5275574 -5.5275574z" fill-rule="evenodd"/><path stroke="#000000" stroke-width="1.0" stroke-linejoin="round" stroke-linecap="butt" d="m453.8714 204.41077l0 0c0 -3.0527954 2.474762 -5.5275574 5.5275574 -5.5275574l0 0c1.4660034 0 2.8719482 0.5823517 3.9085693 1.6189728c1.0366211 1.0366211 1.618988 2.4425812 1.618988 3.9085846l0 0c0 3.0527802 -2.474762 5.5275574 -5.5275574 5.5275574l0 0c-3.0527954 0 -5.5275574 -2.4747772 -5.5275574 -5.5275574z" fill-rule="evenodd"/><path fill="#ffffff" d="m434.0538 269.05777l0 0c0 3.0527954 2.474762 5.5275574 5.5275574 5.5275574l0 0c1.4660034 0 2.8719482 -0.58236694 3.9085693 -1.618988c1.0366211 -1.0366211 1.618988 -2.442566 1.618988 -3.9085693l0 0c0 -3.052765 -2.474762 -5.5275574 -5.5275574 -5.5275574l0 0c-3.0527954 0 -5.5275574 2.4747925 -5.5275574 5.5275574z" fill-rule="evenodd"/><path stroke="#000000" stroke-width="1.0" stroke-linejoin="round" stroke-linecap="butt" d="m434.0538 269.05777l0 0c0 3.0527954 2.474762 5.5275574 5.5275574 5.5275574l0 0c1.4660034 0 2.8719482 -0.58236694 3.9085693 -1.618988c1.0366211 -1.0366211 1.618988 -2.442566 1.618988 -3.9085693l0 0c0 -3.052765 -2.474762 -5.5275574 -5.5275574 -5.5275574l0 0c-3.0527954 0 -5.5275574 2.4747925 -5.5275574 5.5275574z" fill-rule="evenodd"/><path fill="#ffffff" d="m362.22308 271.70078l0 0c0 -3.052765 2.4747925 -5.5275574 5.527588 -5.5275574l0 0c1.4659729 0 2.8719482 0.58236694 3.9085693 1.618988c1.0366211 1.0366211 1.618988 2.4425964 1.618988 3.9085693l0 0c0 3.0527954 -2.4747925 5.5275574 -5.5275574 5.5275574l0 0c-3.0527954 0 -5.527588 -2.474762 -5.527588 -5.5275574z" fill-rule="evenodd"/><path stroke="#000000" stroke-width="1.0" stroke-linejoin="round" stroke-linecap="butt" d="m362.22308 271.70078l0 0c0 -3.052765 2.4747925 -5.5275574 5.527588 -5.5275574l0 0c1.4659729 0 2.8719482 0.58236694 3.9085693 1.618988c1.0366211 1.0366211 1.618988 2.4425964 1.618988 3.9085693l0 0c0 3.0527954 -2.4747925 5.5275574 -5.5275574 5.5275574l0 0c-3.0527954 0 -5.527588 -2.474762 -5.527588 -5.5275574z" fill-rule="evenodd"/><path fill="#ffffff" d="m442.8176 168.96063l0 0c0 -3.0527954 2.474762 -5.5275574 5.5275574 -5.5275574l0 0c1.4660034 0 2.8719482 0.58236694 3.9085693 1.618988c1.0366211 1.0366058 1.618988 2.442566 1.618988 3.9085693l0 0c0 3.0527802 -2.4747925 5.5275574 -5.5275574 5.5275574l0 0c-3.0527954 0 -5.5275574 -2.4747772 -5.5275574 -5.5275574z" fill-rule="evenodd"/><path stroke="#000000" stroke-width="1.0" stroke-linejoin="round" stroke-linecap="butt" d="m442.8176 168.96063l0 0c0 -3.0527954 2.474762 -5.5275574 5.5275574 -5.5275574l0 0c1.4660034 0 2.8719482 0.58236694 3.9085693 1.618988c1.0366211 1.0366058 1.618988 2.442566 1.618988 3.9085693l0 0c0 3.0527802 -2.4747925 5.5275574 -5.5275574 5.5275574l0 0c-3.0527954 0 -5.5275574 -2.4747772 -5.5275574 -5.5275574z" fill-rule="evenodd"/><path fill="#ffffff" d="m464.34122 168.96063l0 0c0 -3.0527954 2.474762 -5.5275574 5.5275574 -5.5275574l0 0c1.4660034 0 2.8719482 0.58236694 3.9085693 1.618988c1.0366211 1.0366058 1.618988 2.442566 1.618988 3.9085693l0 0c0 3.0527802 -2.4747925 5.5275574 -5.5275574 5.5275574l0 0c-3.0527954 0 -5.5275574 -2.4747772 -5.5275574 -5.5275574z" fill-rule="evenodd"/><path stroke="#000000" stroke-width="1.0" stroke-linejoin="round" stroke-linecap="butt" d="m464.34122 168.96063l0 0c0 -3.0527954 2.474762 -5.5275574 5.5275574 -5.5275574l0 0c1.4660034 0 2.8719482 0.58236694 3.9085693 1.618988c1.0366211 1.0366058 1.618988 2.442566 1.618988 3.9085693l0 0c0 3.0527802 -2.4747925 5.5275574 -5.5275574 5.5275574l0 0c-3.0527954 0 -5.5275574 -2.4747772 -5.5275574 -5.5275574z" fill-rule="evenodd"/><path fill="#ffffff" d="m535.02625 274.6483l0 0c0 -3.052765 2.4747925 -5.5275574 5.527588 -5.5275574l0 0c1.4659424 0 2.8719482 0.58236694 3.9085693 1.618988c1.0366211 1.0366211 1.6189575 2.442566 1.6189575 3.9085693l0 0c0 3.0527954 -2.4747925 5.5275574 -5.527527 5.5275574l0 0c-3.0527954 0 -5.527588 -2.474762 -5.527588 -5.5275574z" fill-rule="evenodd"/><path stroke="#000000" stroke-width="1.0" stroke-linejoin="round" stroke-linecap="butt" d="m535.02625 274.6483l0 0c0 -3.052765 2.4747925 -5.5275574 5.527588 -5.5275574l0 0c1.4659424 0 2.8719482 0.58236694 3.9085693 1.618988c1.0366211 1.0366211 1.6189575 2.442566 1.6189575 3.9085693l0 0c0 3.0527954 -2.4747925 5.5275574 -5.527527 5.5275574l0 0c-3.0527954 0 -5.527588 -2.474762 -5.527588 -5.5275574z" fill-rule="evenodd"/><path fill="#ffffff" d="m682.1601 434.6007l0 0c0 3.0527954 2.4747925 5.5275574 5.527588 5.5275574l0 0c1.4660034 0 2.8719482 -0.58236694 3.9085693 -1.618988c1.0366211 -1.0365906 1.6189575 -2.442566 1.6189575 -3.9085693l0 0c0 -3.052765 -2.4747314 -5.5275574 -5.527527 -5.5275574l0 0c-3.0527954 0 -5.527588 2.4747925 -5.527588 5.5275574z" fill-rule="evenodd"/><path stroke="#000000" stroke-width="1.0" stroke-linejoin="round" stroke-linecap="butt" d="m682.1601 434.6007l0 0c0 3.0527954 2.4747925 5.5275574 5.527588 5.5275574l0 0c1.4660034 0 2.8719482 -0.58236694 3.9085693 -1.618988c1.0366211 -1.0365906 1.6189575 -2.442566 1.6189575 -3.9085693l0 0c0 -3.052765 -2.4747314 -5.5275574 -5.527527 -5.5275574l0 0c-3.0527954 0 -5.527588 2.4747925 -5.527588 5.5275574z" fill-rule="evenodd"/><path fill="#ffffff" d="m701.4869 243.48294l0 0c0 -3.0527802 2.4747925 -5.5275574 5.527588 -5.5275574l0 0c1.4659424 0 2.8719482 0.58236694 3.9085693 1.618988c1.0366211 1.0366058 1.6189575 2.442566 1.6189575 3.9085693l0 0c0 3.0527802 -2.4747925 5.5275574 -5.527527 5.5275574l0 0c-3.0527954 0 -5.527588 -2.4747772 -5.527588 -5.5275574z" fill-rule="evenodd"/><path stroke="#000000" stroke-width="1.0" stroke-linejoin="round" stroke-linecap="butt" d="m701.4869 243.48294l0 0c0 -3.0527802 2.4747925 -5.5275574 5.527588 -5.5275574l0 0c1.4659424 0 2.8719482 0.58236694 3.9085693 1.618988c1.0366211 1.0366058 1.6189575 2.442566 1.6189575 3.9085693l0 0c0 3.0527802 -2.4747925 5.5275574 -5.527527 5.5275574l0 0c-3.0527954 0 -5.527588 -2.4747772 -5.527588 -5.5275574z" fill-rule="evenodd"/><path fill="#ffffff" d="m650.83466 219.40945l0 0c0 -3.0527954 2.4747925 -5.5275574 5.527527 -5.5275574l0 0c1.4660034 0 2.8719482 0.5823517 3.9085693 1.6189728c1.0366211 1.0366211 1.6190186 2.4425812 1.6190186 3.9085846l0 0c0 3.0527802 -2.4747925 5.5275574 -5.527588 5.5275574l0 0c-3.0527344 0 -5.527527 -2.4747772 -5.527527 -5.5275574z" fill-rule="evenodd"/><path stroke="#000000" stroke-width="1.0" stroke-linejoin="round" stroke-linecap="butt" d="m650.83466 219.40945l0 0c0 -3.0527954 2.4747925 -5.5275574 5.527527 -5.5275574l0 0c1.4660034 0 2.8719482 0.5823517 3.9085693 1.6189728c1.0366211 1.0366211 1.6190186 2.4425812 1.6190186 3.9085846l0 0c0 3.0527802 -2.4747925 5.5275574 -5.527588 5.5275574l0 0c-3.0527344 0 -5.527527 -2.4747772 -5.527527 -5.5275574z" fill-rule="evenodd"/><path fill="#ffffff" d="m384.56955 396.48032l0 0c0 -3.0527954 2.474762 -5.5275574 5.5275574 -5.5275574l0 0c1.4660034 0 2.8719482 0.58236694 3.9085693 1.618988c1.0366211 1.0366211 1.618988 2.442566 1.618988 3.9085693l0 0c0 3.0527954 -2.474762 5.5275574 -5.5275574 5.5275574l0 0c-3.0527954 0 -5.5275574 -2.474762 -5.5275574 -5.5275574z" fill-rule="evenodd"/><path stroke="#000000" stroke-width="1.0" stroke-linejoin="round" stroke-linecap="butt" d="m384.56955 396.48032l0 0c0 -3.0527954 2.474762 -5.5275574 5.5275574 -5.5275574l0 0c1.4660034 0 2.8719482 0.58236694 3.9085693 1.618988c1.0366211 1.0366211 1.618988 2.442566 1.618988 3.9085693l0 0c0 3.0527954 -2.474762 5.5275574 -5.5275574 5.5275574l0 0c-3.0527954 0 -5.5275574 -2.474762 -5.5275574 -5.5275574z" fill-rule="evenodd"/><path fill="#ffffff" d="m533.5801 444.72964l0 0c0 -3.052765 2.4747314 -5.5275574 5.527527 -5.5275574l0 0c1.4660034 0 2.8719482 0.58236694 3.9085693 1.618988c1.0366211 1.0366211 1.6190186 2.4425964 1.6190186 3.9085693l0 0c0 3.0527954 -2.4747925 5.527588 -5.527588 5.527588l0 0c-3.0527954 0 -5.527527 -2.4747925 -5.527527 -5.527588z" fill-rule="evenodd"/><path stroke="#000000" stroke-width="1.0" stroke-linejoin="round" stroke-linecap="butt" d="m533.5801 444.72964l0 0c0 -3.052765 2.4747314 -5.5275574 5.527527 -5.5275574l0 0c1.4660034 0 2.8719482 0.58236694 3.9085693 1.618988c1.0366211 1.0366211 1.6190186 2.4425964 1.6190186 3.9085693l0 0c0 3.0527954 -2.4747925 5.527588 -5.527588 5.527588l0 0c-3.0527954 0 -5.527527 -2.4747925 -5.527527 -5.527588z" fill-rule="evenodd"/></g></svg>